<svg xmlns="http://www.w3.org/2000/svg" xmlns:xlink="http://www.w3.org/1999/xlink" width="360" height="360" viewBox="0 0 360 360">
  <defs>
    <path id="illustration-dashboard-a" d="M179.550781,325.916016 C52.9634942,326.563784 16.9883499,330.131411 3.453125,293.005859 C-10.0820999,255.880308 46.5736549,229.029371 38.8671875,203.921875 C29.6639556,173.937955 6.41198863,148.070759 0.681640625,113.185547 C-9.84710212,49.0886678 173.260555,-37.3489585 245.5,17.5 C298.722656,57.9101562 236.164275,97.0087885 245.5,139.5 C252.955609,173.43393 275.173204,192.037623 299,213 C352.662109,260.210938 306.138068,325.268247 179.550781,325.916016 Z M310.96963,105.300512 C316.738969,112.731217 348.390306,189.942882 307,196 C286.5,199 257.08576,148.293969 255.660221,137.17823 C250.159101,94.2828625 287.762365,75.4103691 310.96963,105.300512 Z"/>
    <path id="illustration-dashboard-c" d="M44.8792419,113.384486 C53.1483738,119.947616 71.0155714,120.872295 81.201002,119.386781 C93.1591285,117.642725 107.028668,105.730723 106.999955,94.6063046 C106.946786,74.0065725 82.5739529,78.0573763 83.1434558,53.4032641 C83.7129587,28.7491518 51.3611773,47.9100022 51.3978051,25.2777155 C51.4344329,2.64542877 22.0152369,-6.25847165 8.00452057,4.6231461 C-6.00619575,15.5047639 -0.597441695,35.488173 16.2599494,42.1544752 C33.1173405,48.8207774 14.514338,68.5777612 35.676217,77.3779476 C56.838096,86.1781341 26.9017993,99.1159638 44.8792419,113.384486 Z"/>
    <path id="illustration-dashboard-e" d="M2.30601937,0 L40.6939806,0 L40.6939806,8.8817842e-16 C41.7985501,6.85272294e-16 42.6939806,0.8954305 42.6939806,2 C42.6939806,2.09463774 42.6872634,2.18915613 42.6738796,2.28284271 L37.2453082,40.2828427 L37.2453082,40.2828427 C37.1045514,41.2681402 36.2607099,42 35.2654092,42 L7.7345908,42 L7.7345908,42 C6.73929005,42 5.8954486,41.2681402 5.75469182,40.2828427 L0.326120387,2.28284271 L0.326120387,2.28284271 C0.169910671,1.1893747 0.929708645,0.176310729 2.02317666,0.0201010127 C2.11686324,0.00671721544 2.21138164,-6.48749144e-16 2.30601937,-6.66133815e-16 Z"/>
    <path id="illustration-dashboard-g" d="M8,-1.21724354e-13 L234,-1.10241677e-14 L234,-7.10542736e-15 C238.418278,-7.9170611e-15 242,3.581722 242,8 L242,268 L242,268 C242,272.418278 238.418278,276 234,276 L8,276 L8,276 C3.581722,276 4.09379668e-15,272.418278 3.55271368e-15,268 L0,8 L-3.55271368e-15,8 C-4.09379668e-15,3.581722 3.581722,-1.12875204e-13 8,-1.13686838e-13 Z"/>
    <rect id="illustration-dashboard-i" width="89" height="276"/>
    <path id="illustration-dashboard-j" d="M62.8280788,40.6110574 C63.5917535,37.8712682 64,34.9833097 64,32 C64,14.326888 49.673112,0 32,0 C14.326888,0 0,14.326888 0,32 C0,49.673112 14.326888,64 32,64 C40.6846179,64 48.5612004,60.5403893 54.3267558,54.9241595 L65.1570847,53.2746606 L65.1570847,53.2746606 C66.2490618,53.1083485 66.9994616,52.0883035 66.8331494,50.9963264 C66.8109116,50.8503164 66.7725688,50.707219 66.7188223,50.5696517 L62.8280788,40.6110574 Z"/>
    <path id="illustration-dashboard-l" d="M21.1377531,18.5416829 C22.1569374,21.1254015 22.007986,24.4513509 20.6908987,28.5195313 C18.7152678,34.6218018 3.00048186,27.7343669 0.853637695,37.4195231 C-1.29320647,47.1046794 23.5062163,48.723904 30.150532,48.0621094 C34.5800757,47.620913 42.222339,47.826143 53.0773219,48.6777995 C59.7677259,49.4125868 63.0608488,47.3657362 62.9566907,42.5372477 C62.8525326,37.7087592 56.2201442,33.4071696 43.0595253,29.6324788 C40.867618,24.5147542 40.2090743,20.1393934 41.0838944,16.5063965 C42.036968,13.4933431 43.4435071,9.83309733 45.3035118,5.52565918 L45.3035118,0.185823568 L41.0838944,0.619278971 L35.008455,8.49285482 L26.8594328,18.5416829 L22.9972181,16.5063965 L21.1377531,18.5416829 Z"/>
    <path id="illustration-dashboard-n" d="M14.236084,2.62304688 C38.7376816,11.7273663 25.6372064,5.37903899 41.0473633,1.0871582 C58.3447436,-3.73033294 50.3592296,21.1932058 38.8759766,23.9274902 C17.6632164,28.9784737 -18.8802321,-1.66008562 13.5517578,1.39599609 L14.236084,2.62304688 Z"/>
    <path id="illustration-dashboard-p" d="M2.16845082,5.22969092 C-1.119087,22.0641726 -0.425008543,30.6905323 4.25068619,31.1087698 C7.56522462,31.9078185 14.4387602,28.8921445 17.209268,28.3237588 C19.0562732,27.9448349 20.7711564,25.3626975 22.3539177,20.5773464 L27.2227137,8.30596759 L15.1795257,0 L3.87074332,0.856255884 L2.16845082,5.22969092 Z"/>
    <path id="illustration-dashboard-r" d="M55.1108104,9.8664639 C49.2859528,3.78605411 41.0851166,0 32,0 C14.326888,0 5.57776048e-13,14.326888 5.57776048e-13,32 C5.57776048e-13,49.673112 14.326888,64 32,64 C49.673112,64 64,49.673112 64,32 C64,29.5429344 63.7230768,27.1505476 63.1987384,24.8523477 C63.2239584,24.8012161 63.2470595,24.7488681 63.2679408,24.695421 L67.3682364,14.2004655 C67.7701944,13.1716295 67.2620094,12.0117417 66.2331734,11.6097837 C66.0956062,11.5560373 65.9525087,11.5176944 65.8064988,11.4954566 L55.1108104,9.8664639 Z"/>
    <path id="illustration-dashboard-t" d="M21.1377531,18.5416829 C22.1569374,21.1254015 22.007986,24.4513509 20.6908987,28.5195313 C18.7152678,34.6218018 3.00048186,27.7343669 0.853637695,37.4195231 C-1.29320647,47.1046794 23.5062163,48.723904 30.150532,48.0621094 C34.5800757,47.620913 42.222339,47.826143 53.0773219,48.6777995 C59.7677259,49.4125868 63.0608488,47.3657362 62.9566907,42.5372477 C62.8525326,37.7087592 56.2201442,33.4071696 43.0595253,29.6324788 C40.867618,24.5147542 40.2090743,20.1393934 41.0838944,16.5063965 C42.036968,13.4933431 43.4435071,9.83309733 45.3035118,5.52565918 L45.3035118,0.185823568 L41.0838944,0.619278971 L35.008455,8.49285482 L26.8594328,18.5416829 L22.9972181,16.5063965 L21.1377531,18.5416829 Z"/>
    <path id="illustration-dashboard-v" d="M14.236084,2.62304688 C38.7376816,11.7273663 25.6372064,5.37903899 41.0473633,1.0871582 C58.3447436,-3.73033294 50.3592296,21.1932058 38.8759766,23.9274902 C17.6632164,28.9784737 -18.8802321,-1.66008562 13.5517578,1.39599609 L14.236084,2.62304688 Z"/>
    <path id="illustration-dashboard-x" d="M2.67452798,5.02457242 C-0.443777133,21.4987683 0.536946615,30.1442233 5.61669922,30.9609375 C8.93123765,31.7599862 15.6708984,29.6426045 18.4414062,29.0742187 C20.2884115,28.6952949 21.9259153,25.8630041 23.3539177,20.5773464 L28.2227137,8.30596759 L16.1795257,0 L4.75305509,1.38848712 L2.67452798,5.02457242 Z"/>
  </defs>
  <g fill="none" fill-rule="evenodd">
    <rect width="360" height="360" fill="#FFF"/>
    <g transform="translate(21 18)">
      <mask id="illustration-dashboard-b" fill="#fff">
        <use xlink:href="#illustration-dashboard-a"/>
      </mask>
      <use fill="#FFF8F4" xlink:href="#illustration-dashboard-a"/>
      <g mask="url(#illustration-dashboard-b)">
        <g transform="translate(29 35)">
          <rect width="22" height="11" x="124" y="20" fill="#FFE1CE" rx="2"/>
          <rect width="22" height="11" x="160" y="267" fill="#FFE1CE" rx="2"/>
          <rect width="22" height="11" x="11" y="213" fill="#FFE1CE" rx="2"/>
          <rect width="22" height="11" x="203" y="213" fill="#FFE1CE" rx="2"/>
          <rect width="22" height="11" x="31" y="158" fill="#FFE1CE" rx="2"/>
          <rect width="22" height="11" x="99" y="103" fill="#FFE1CE" rx="2"/>
          <rect width="22" height="11" x="110" y="6" fill="#FFF" rx="2"/>
          <rect width="22" height="11" x="113" y="87" fill="#FFF" rx="2"/>
          <rect width="22" height="11" x="42" y="108" fill="#FFF" rx="2"/>
          <rect width="22" height="11" x="220" y="229" fill="#FFF" rx="2"/>
          <rect width="22" height="11" x="160" y="158" fill="#FFF" rx="2"/>
          <rect width="22" height="11" fill="#FFF" rx="2"/>
          <rect width="22" height="11" x="257" y="72" fill="#FFF" rx="2"/>
          <rect width="22" height="11" x="201" y="92" fill="#FFE1CE" rx="2"/>
        </g>
      </g>
    </g>
    <path fill="#FFEFE5" d="M235.123222 56.519106C239.335219 48.839702 246.751775 45 257.37289 45 274.297695 45 274.540859 53 286.37289 53 298.204921 53 304.070156 33 329.37289 33 345.869447 33 354.840673 40.969902 356.286568 56.9097059L356.286524 56.9097099C356.336414 57.4597119 355.930994 57.9460208 355.380992 57.9959113 355.350957 57.9986357 355.320815 58 355.290657 58L235.999998 58 235.999998 57.9999979C235.447714 57.9999979 235 57.5522836 235 57 235 56.8318929 235.04238 56.6664986 235.123222 56.519106zM.123221569 111.519106C4.33521876 103.839702 11.7517749 100 22.3728901 100 39.2976948 100 39.5408588 108 51.3728901 108 63.2049213 108 69.0701557 88 94.3728901 88 110.869447 88 119.840673 95.969902 121.286568 111.909706L121.286524 111.90971C121.336414 112.459712 120.930994 112.946021 120.380992 112.995911 120.350957 112.998636 120.320815 113 120.290657 113L.999997925 113 .999997925 112.999998C.447714321 112.999998 1.27259314e-14 112.552284 1.26565425e-14 112 1.26426647e-14 111.831893.042379702 111.666499.123221569 111.519106z"/>
    <path fill="#FFEFE5" d="M204.123222,165.519106 C208.335219,157.839702 215.751775,154 226.37289,154 C243.297695,154 243.540859,162 255.37289,162 C267.204921,162 273.070156,142 298.37289,142 C314.869447,142 323.840673,149.969902 325.286568,165.909706 L325.286524,165.90971 C325.336414,166.459712 324.930994,166.946021 324.380992,166.995911 C324.350957,166.998636 324.320815,167 324.290657,167 L204.999998,167 L204.999998,166.999998 C204.447714,166.999998 204,166.552284 204,166 C204,165.831893 204.04238,165.666499 204.123222,165.519106 Z" transform="matrix(-1 0 0 1 529.29 0)"/>
    <path fill="#FFEFE5" d="M16.1232167,41.519124 C20.3352122,33.839708 27.7517717,30 38.3728951,30 C55.2976998,30 55.5408639,38 67.3728951,38 C79.2049264,38 85.0701607,18 110.372895,18 C128.611333,18 129.500005,38 142.500005,38 C155.500005,38 153.000005,30.5 169.000005,30.5 C179.118918,30.5 185.150001,34.2497214 187.093255,41.7491643 L187.093255,41.7491643 C187.231788,42.2837923 186.910689,42.829497 186.376061,42.9680297 C186.294139,42.9892574 186.209853,43 186.125225,43 L16.999962,43 L16.999962,42.999962 C16.4476982,42.999962 16,42.5522638 16,42 C16,41.8318992 16.042378,41.6665111 16.1232167,41.519124 Z"/>
    <g transform="matrix(-1 0 0 1 357 180)">
      <g transform="matrix(-1 0 0 1 135.375 .291)">
        <mask id="illustration-dashboard-d" fill="#fff">
          <use xlink:href="#illustration-dashboard-c"/>
        </mask>
        <use fill="#FFC7A4" xlink:href="#illustration-dashboard-c"/>
        <rect width="12" height="89.192" x="28.375" fill="#000" fill-opacity=".08" mask="url(#illustration-dashboard-d)"/>
        <path stroke="#FFEFE5" stroke-linecap="round" stroke-width="2" d="M79.2373047,125.633789 C65.7552545,76.7638578 43.1846165,33.7967354 18,16" mask="url(#illustration-dashboard-d)"/>
        <path fill="#000" fill-opacity=".08" d="M69.4858132,131.708779 C82.1439175,127.29374 78.6165676,128.561949 85.351814,100.16816 C92.0870603,71.774371 61.7253901,82.758372 65.4858132,59.2087792 C66.3196547,53.9868596 65.6494912,49.6915836 64.1997279,46.6340779 C62.4858132,50.7087792 63.5358621,53.7087792 63.0358621,57.7087792 C62.361194,63.1061235 60.9858132,65.2087792 60.1857644,66.6088036 C58.9969451,86.4714827 64.8707998,133.318457 69.4858132,131.708779 Z" mask="url(#illustration-dashboard-d)" transform="matrix(-1 0 0 1 146.361 0)"/>
      </g>
      <g transform="translate(.985 29.634)">
        <path fill="#FFE5D4" d="M54.0146484,95.3662109 C67.1777941,94.2215896 65.5146484,92.8662109 68.5146484,68.3662109 C71.5146484,43.8662109 44.6114385,56.4582746 48.5146484,31.3662109 C52.4178583,6.27414732 22.5253648,-6.51540681 8.51464844,4.36621094 C-5.49606789,15.2478287 1.51464844,31.8662109 15.5146484,41.3662109 C29.5146484,50.8662109 9.51464844,66.3662109 29.5146484,79.3662109 C49.5146484,92.3662109 42.5146484,96.3662109 54.0146484,95.3662109 Z"/>
        <path stroke="#FFF5EF" stroke-linecap="round" stroke-width="2" d="M59.0146484,105.366211 C43.1835938,57.5146484 40.765625,36.5859375 18.0146484,16.3662109"/>
      </g>
      <g transform="translate(38 120)">
        <mask id="illustration-dashboard-f" fill="#fff">
          <use xlink:href="#illustration-dashboard-e"/>
        </mask>
        <use fill="#FFAA71" xlink:href="#illustration-dashboard-e"/>
        <path fill="#000" fill-opacity=".08" d="M5,42 L5,47 L45,47 L45,-2 L5,-2 L5,1.77635684e-15 L37.6939806,0 L37.6939806,8.8817842e-16 C38.7985501,8.8817842e-16 39.6939806,0.8954305 39.6939806,2 C39.6939806,2.09463774 39.6872634,2.18915613 39.6738796,2.28284271 L34.2453082,40.2828427 L34.2453082,40.2828427 C34.1045514,41.2681402 33.2607099,42 32.2654092,42 L5,42 Z" mask="url(#illustration-dashboard-f)"/>
      </g>
    </g>
    <g transform="translate(16 68)">
      <mask id="illustration-dashboard-h" fill="#fff">
        <use xlink:href="#illustration-dashboard-g"/>
      </mask>
      <use fill="#FFF" xlink:href="#illustration-dashboard-g"/>
      <g mask="url(#illustration-dashboard-h)">
        <g transform="translate(177 38)">
          <rect width="52" height="12" x="-20" y="20" fill="#FFC7A4" rx="2" transform="rotate(-90 6 26)"/>
          <rect width="32" height="12" x="8" y="30" fill="#FFEFE5" rx="2" transform="rotate(-90 24 36)"/>
          <rect width="16" height="12" x="34" y="38" fill="#FF8736" rx="2" transform="rotate(-90 42 44)"/>
        </g>
      </g>
      <rect width="131" height="91" x="97" y="118" fill="#FFF8F4" mask="url(#illustration-dashboard-h)" rx="2"/>
      <g mask="url(#illustration-dashboard-h)">
        <g transform="translate(97 226)">
          <rect width="9" height="6" x="20" fill="#FFD6BA" rx="1"/>
          <rect width="15" height="15" fill="#FFAA71" rx="3"/>
          <rect width="23" height="6" x="32" fill="#FFD6BA" rx="1"/>
          <rect width="15" height="6" x="60" fill="#FFD6BA" rx="1"/>
          <rect width="25" height="6" x="80" fill="#FFD6BA" rx="1"/>
          <rect width="21" height="6" x="20" y="9" fill="#FFEFE5" rx="1"/>
          <rect width="12" height="6" x="46" y="9" fill="#FFEFE5" rx="1"/>
          <rect width="26" height="6" x="63" y="9" fill="#FFEFE5" rx="1"/>
          <rect width="17" height="6" x="94" y="9" fill="#FFEFE5" rx="1"/>
          <rect width="9" height="6" x="116" y="9" fill="#FFEFE5" rx="1"/>
        </g>
      </g>
      <g mask="url(#illustration-dashboard-h)">
        <g transform="translate(97 252)">
          <rect width="25" height="6" x="20" fill="#FFD6BA" rx="1"/>
          <rect width="15" height="15" fill="#FFAA71" rx="3"/>
          <rect width="26" height="6" x="50" fill="#FFD6BA" rx="1"/>
          <rect width="9" height="6" x="81" fill="#FFD6BA" rx="1"/>
          <rect width="29" height="6" x="95" fill="#FFD6BA" rx="1"/>
          <rect width="34" height="6" x="20" y="9" fill="#FFEFE5" rx="1"/>
          <rect width="9" height="6" x="59" y="9" fill="#FFEFE5" rx="1"/>
          <rect width="25" height="6" x="73" y="9" fill="#FFEFE5" rx="1"/>
          <rect width="9" height="6" x="103" y="9" fill="#FFEFE5" rx="1"/>
        </g>
      </g>
      <rect width="8" height="17" x="109" y="180" fill="#FFC7A4" mask="url(#illustration-dashboard-h)" rx="2"/>
      <rect width="8" height="24" x="123" y="173" fill="#FFC7A4" mask="url(#illustration-dashboard-h)" rx="2"/>
      <rect width="8" height="42" x="137" y="155" fill="#FFC7A4" mask="url(#illustration-dashboard-h)" rx="2"/>
      <rect width="8" height="36" x="151" y="161" fill="#FFC7A4" mask="url(#illustration-dashboard-h)" rx="2"/>
      <rect width="8" height="47" x="165" y="150" fill="#FFC7A4" mask="url(#illustration-dashboard-h)" rx="2"/>
      <rect width="8" height="62" x="179" y="135" fill="#FFC7A4" mask="url(#illustration-dashboard-h)" rx="2"/>
      <rect width="8" height="56" x="193" y="141" fill="#FFC7A4" mask="url(#illustration-dashboard-h)" rx="2"/>
      <rect width="8" height="70" x="207" y="127" fill="#FFC7A4" mask="url(#illustration-dashboard-h)" rx="2"/>
      <g mask="url(#illustration-dashboard-h)">
        <g transform="translate(99 31)">
          <path fill="#FFC7A4" d="M29,59 C31.3141809,59 33.5650513,58.7289357 35.722593,58.2168252 L29,30 L29,1 C12.9837423,1 0,13.9837423 0,30 C0,46.0162577 12.9837423,59 29,59 Z"/>
          <path fill="#FF8736" d="M39.5458173,61.2581964 C48.079897,59.289295 55.1733733,53.5539675 58.9815701,45.8968899 L33,33 L39.5458173,61.2581964 Z"/>
          <path fill="#FFEFE5" d="M58.0108694,41.8378093 C59.9245475,37.9678761 61,33.6095307 61,29 C61,12.9837423 48.0162577,0 32,0 L32,29 L58.0108694,41.8378093 Z"/>
        </g>
      </g>
      <g mask="url(#illustration-dashboard-h)">
        <g transform="translate(-4 6)">
          <use fill="#FFF8F4" xlink:href="#illustration-dashboard-i"/>
        </g>
      </g>
      <g mask="url(#illustration-dashboard-h)">
        <g transform="translate(8 28)">
          <rect width="16" height="16" fill="#FFAA71" rx="2"/>
          <rect width="29" height="6" x="20" fill="#FFD5BA" rx="1"/>
          <rect width="11" height="6" x="52" fill="#FFD5BA" rx="1"/>
          <rect width="34" height="6" x="20" y="10" fill="#FFE1CE" rx="1"/>
        </g>
      </g>
      <g mask="url(#illustration-dashboard-h)">
        <g transform="translate(8 54)">
          <rect width="16" height="16" fill="#FFAA71" rx="2"/>
          <rect width="19" height="6" x="20" fill="#FFD5BA" rx="1"/>
          <rect width="15" height="6" x="42" fill="#FFD5BA" rx="1"/>
          <rect width="34" height="6" x="20" y="10" fill="#FFE1CE" rx="1"/>
        </g>
      </g>
      <g mask="url(#illustration-dashboard-h)">
        <g transform="translate(8 80)">
          <rect width="16" height="16" fill="#FFAA71" rx="2"/>
          <rect width="9" height="6" x="20" fill="#FFD5BA" rx="1"/>
          <rect width="17" height="6" x="32" fill="#FFD5BA" rx="1"/>
          <rect width="15" height="6" x="52" fill="#FFD5BA" rx="1"/>
          <rect width="34" height="6" x="20" y="10" fill="#FFE1CE" rx="1"/>
        </g>
      </g>
      <g mask="url(#illustration-dashboard-h)">
        <g transform="translate(8 106)">
          <rect width="16" height="16" fill="#FFAA71" rx="2"/>
          <rect width="16" height="6" x="20" fill="#FFD5BA" rx="1"/>
          <rect width="16" height="6" x="40" fill="#FFD5BA" rx="1"/>
          <rect width="34" height="6" x="20" y="10" fill="#FFE1CE" rx="1"/>
        </g>
      </g>
      <g mask="url(#illustration-dashboard-h)">
        <g transform="translate(8 132)">
          <rect width="16" height="16" fill="#FFAA71" rx="2"/>
          <rect width="29" height="6" x="20" fill="#FFD5BA" rx="1"/>
          <rect width="6" height="6" x="52" fill="#FFD5BA" rx="1"/>
          <rect width="34" height="6" x="20" y="10" fill="#FFE1CE" rx="1"/>
        </g>
      </g>
      <g mask="url(#illustration-dashboard-h)">
        <g transform="translate(8 158)">
          <rect width="16" height="16" fill="#FFAA71" rx="2"/>
          <rect width="41" height="6" x="20" fill="#FFD5BA" rx="1"/>
          <rect width="34" height="6" x="20" y="10" fill="#FFE1CE" rx="1"/>
        </g>
      </g>
      <rect width="250" height="20" x="-4" y="-4" fill="#FF8736" mask="url(#illustration-dashboard-h)"/>
    </g>
    <g transform="matrix(-1 0 0 1 307 78)">
      <mask id="illustration-dashboard-k" fill="#fff">
        <use xlink:href="#illustration-dashboard-j"/>
      </mask>
      <use fill="#FFEFE5" xlink:href="#illustration-dashboard-j"/>
      <g mask="url(#illustration-dashboard-k)">
        <g transform="scale(-1 1) rotate(-7 41.875 533.67)">
          <path fill="#783B12" d="M41.7169067,14.7528306 C43.1729521,5.05120558 32.4130312,6.60512605 30.4390747,6.88954936 C28.4651181,7.17397267 18.1952177,9.15163344 14.4415161,19.60244 C11.1311319,26.716747 13.7936738,29.1939418 9.64024653,35.4315415 C5.48681926,41.6691413 5.62041766,50.045002 6.19591059,52.8656236 C6.77140352,55.6862452 7.08377669,61.7280828 16.4169625,61.3474904 C25.7501483,60.966898 34.1791695,57.2239482 32.0015747,46.6834947 C31.8220081,41.3380866 27.5014816,32.7598527 29.3951293,26.739647 C29.5195062,26.2405779 40.2608613,24.4544556 41.7169067,14.7528306 Z"/>
          <g transform="translate(0 16)">
            <mask id="illustration-dashboard-m" fill="#fff">
              <use xlink:href="#illustration-dashboard-l"/>
            </mask>
            <use fill="#FFE1CE" xlink:href="#illustration-dashboard-l"/>
            <path fill="#FFD5BA" d="M20.7062796,21.4024089 C24.762509,24.4012397 28.7388356,23.2416022 31.9457448,31.24996 C32.5697862,32.8083285 33.5194189,33.8967814 34.2928403,35.4791423 C39.3520139,45.8298248 51.9794882,42.0517284 58.7520495,35.1585368 C66.2280162,27.5494111 44.9242469,-1.21016311 40.9398001,1.34861654 C38.1563996,3.13609388 34.5484008,9.5213253 31.9646639,11.5792806 C26.862092,15.6434965 21.0698885,18.7867893 15.6225008,22.3905436 L20.7062796,21.4024089 Z" mask="url(#illustration-dashboard-m)"/>
            <g mask="url(#illustration-dashboard-m)">
              <g transform="translate(3 28)">
                <mask id="illustration-dashboard-o" fill="#fff">
                  <use xlink:href="#illustration-dashboard-n"/>
                </mask>
                <use fill="#FF9248" xlink:href="#illustration-dashboard-n"/>
                <path fill="#FF8736" d="M22.3904507,-12.1239854 C17.7283751,-5.4838186 21.8612695,7.39086071 22.6346908,8.97322157 C27.6938645,19.3239041 40.3213387,15.5458077 47.0939001,8.6526161 C52.0778779,3.57986563 43.8433947,-3.34566821 22.3904507,-12.1239854 Z" mask="url(#illustration-dashboard-o)" transform="rotate(-31 34.355 1.622)"/>
              </g>
            </g>
          </g>
          <g transform="translate(17 7)">
            <mask id="illustration-dashboard-q" fill="#fff">
              <use xlink:href="#illustration-dashboard-p"/>
            </mask>
            <use fill="#FFE1CE" xlink:href="#illustration-dashboard-p"/>
            <path fill="#FFD5BA" d="M-3.90076541,34.1577376 C15.8426284,46.8860817 0.614825551,34.5067941 3.76584562,22.3735974 C3.69573064,21.2722466 2.46114705,21.5757543 2.33718213,20.4793255 C2.13274624,18.6711574 3.03826457,15.9185202 2.79206567,14.1157466 C-1.34758971,-16.1965786 -5.05934824,33.4710929 -5.76470588,14.3016677 L-3.90076541,34.1577376 Z" mask="url(#illustration-dashboard-q)"/>
          </g>
          <path fill="#783B12" d="M58.1285931,9.12589249 C59.5846385,-0.575732539 48.8247176,0.978187928 46.8507611,1.26261124 C44.8768045,1.54703455 34.6069041,3.52469532 30.8532025,13.9755019 C27.5428184,21.0898089 31.0130851,24.2847581 26.8596578,30.5223579 C22.7062305,36.7599576 22.691782,44.1914413 23.2672749,47.0120629 C23.8427679,49.8326845 25.3705036,57.0533381 34.7036894,56.6727457 C44.0368752,56.2921533 51.9975839,52.9393957 49.819989,42.3989421 C49.6404224,37.0535341 43.9131681,27.1329146 45.8068158,21.1127089 C45.9311926,20.6136398 56.6725477,18.8275175 58.1285931,9.12589249 Z" transform="matrix(-1 0 0 1 81.264 0)"/>
          <path fill="#783B12" d="M17.1739761,0.924434007 C28.9978987,1.65656076 32.9803353,6.44848676 29.1212859,15.300212 C28.1722335,10.8982792 25.3793111,9.6216323 20.7425186,11.4702714 L17.1739761,0.924434007 Z" transform="matrix(-1 0 0 1 47.72 0)"/>
        </g>
      </g>
    </g>
    <g transform="translate(47 251)">
      <mask id="illustration-dashboard-s" fill="#fff">
        <use xlink:href="#illustration-dashboard-r"/>
      </mask>
      <use fill="#FFEFE5" xlink:href="#illustration-dashboard-r"/>
      <g mask="url(#illustration-dashboard-s)">
        <g transform="matrix(-1 0 0 1 61 6)">
          <g transform="translate(0 17)">
            <mask id="illustration-dashboard-u" fill="#fff">
              <use xlink:href="#illustration-dashboard-t"/>
            </mask>
            <use fill="#FFE1CE" xlink:href="#illustration-dashboard-t"/>
            <path fill="#FFD5BA" d="M20.7062796,21.4024089 C24.762509,24.4012397 29.6680587,22.3905436 32.8749679,30.3989014 C33.4990092,31.9572699 33.5194189,33.8967814 34.2928403,35.4791423 C39.3520139,45.8298248 51.9794882,42.0517284 58.7520495,35.1585368 C66.2280162,27.5494111 44.9242469,-1.21016311 40.9398001,1.34861654 C38.1563996,3.13609388 34.5484008,9.5213253 31.9646639,11.5792806 C26.862092,15.6434965 21.0698885,18.7867893 15.6225008,22.3905436 L20.7062796,21.4024089 Z" mask="url(#illustration-dashboard-u)"/>
            <g mask="url(#illustration-dashboard-u)">
              <g transform="translate(3 28)">
                <mask id="illustration-dashboard-w" fill="#fff">
                  <use xlink:href="#illustration-dashboard-v"/>
                </mask>
                <use fill="#FF9248" xlink:href="#illustration-dashboard-v"/>
                <path fill="#FF8736" d="M17.7062796,-6.59759115 C21.762509,-3.59876031 26.6680587,-5.60945638 29.8749679,2.39890137 C30.4990092,3.95726995 30.5194189,5.89678139 31.2928403,7.47914225 C36.3520139,17.8298248 48.9794882,14.0517284 55.7520495,7.15853678 C63.2280162,-0.450588921 41.9242469,-29.2101631 37.9398001,-26.6513835 C35.1563996,-24.8639061 31.5484008,-18.4786747 28.9646639,-16.4207194 C23.862092,-12.3565035 18.0698885,-9.21321072 12.6225008,-5.60945638 L17.7062796,-6.59759115 Z" mask="url(#illustration-dashboard-w)"/>
              </g>
            </g>
          </g>
          <g transform="translate(16 8)">
            <mask id="illustration-dashboard-y" fill="#fff">
              <use xlink:href="#illustration-dashboard-x"/>
            </mask>
            <use fill="#FFE1CE" xlink:href="#illustration-dashboard-x"/>
            <path fill="#FFD5BA" d="M-2.18755744,34.728056 C17.5558364,47.4564001 1.1749483,34.1413231 5.31591797,22.1387234 C5.24580299,21.0373725 3.14666999,21.3725519 3.02270508,20.276123 C2.81826918,18.4679549 4.34190203,16.1044412 4.09570313,14.3016677 C-0.0439522642,-16.0106575 -4.05934824,33.4710929 -4.76470588,14.3016677 L-2.18755744,34.728056 Z" mask="url(#illustration-dashboard-y)"/>
          </g>
          <path fill="#783B12" d="M18.5347863,2.6322048 C20.2027829,1.34815112 22.5755891,0.894687424 26.4362742,1.04257382 C27.6055095,1.08736225 28.6212889,1.17801494 29.5173703,1.30521882 C28.9938322,1.02393815 28.3949448,0.731965047 27.7095947,0.43359375 C29.4455001,0.305818539 31.5526885,1.01675685 34.0311597,2.56640869 C34.4811906,2.77077331 34.8986336,2.98663433 35.3036901,3.20841866 C35.1693634,2.95827222 35.0363663,2.69783122 34.9046985,2.42709567 C35.5810571,3.06834861 36.1881244,3.59008056 36.7298746,4.01523509 C36.9140324,4.11912095 37.1006051,4.22286091 37.2915039,4.32592773 C39.9836136,5.77940562 40.6650102,5.87673093 42.7795122,6.17800046 C44.1894846,6.23096295 46.4394044,6.90646552 47.8386632,8.82525553 C48.8483425,10.0478841 49.4683126,11.9925113 49.6985733,14.6591373 C49.4890701,14.2204209 49.285514,13.8188228 49.0885455,13.4511006 C49.0867771,13.500867 49.0846503,13.5509487 49.0821603,13.6013474 C49.6328125,26.5019531 43.1071777,27.9165039 40.8183594,34.1972656 C41.7785645,28.2399902 44.6904297,24.7615967 44.8592529,22.6807861 C45.0280762,20.5999756 42.6345215,21.1224365 41.9534912,22.4500732 C41.2724609,23.77771 40.7670666,25.9814421 40.0688013,25.8803711 C40.1003418,24.1520996 37.6856221,19.8703699 36.7065718,18.8520508 C36.0179863,18.5250475 36.0179863,16.2311779 36.7065718,11.9704419 C31.1677757,13.4770077 25.2760018,13.7124056 19.03125,12.6766357 C18.616499,13.5348734 18.4989052,14.1367931 18.2788696,15.6317139 C17.7088631,15.8333084 14.2111816,10.1811743 15.9931641,6.17800046 C16.045618,6.06016421 16.0985465,5.94460536 16.1520378,5.83129812 C16.7351957,4.37062159 17.7350754,2.81914584 19.151677,1.17687089 C18.9131247,1.70096086 18.7090981,2.18518956 18.5347863,2.6322048 Z"/>
        </g>
      </g>
    </g>
  </g>
</svg>
