<svg xmlns="http://www.w3.org/2000/svg" xmlns:xlink="http://www.w3.org/1999/xlink" width="360" height="360" viewBox="0 0 360 360">
  <defs>
    <path id="illustration-404-a" d="M180.550781,327.916016 C77.1152344,328.445312 17.9883499,332.131411 4.453125,295.005859 C-9.08209987,257.880308 47.5736549,231.029371 39.8671875,205.921875 C30.6639556,175.937955 7.41198863,150.070759 1.68164063,115.185547 C-8.84710212,51.0886678 99.4346288,-21.4908132 182.777344,7.58984375 C229.992187,24.0644531 194.98654,84.3466791 204.322266,126.837891 C211.777875,160.771821 251.015001,169.930201 274.841797,190.892578 C328.503906,238.103516 283.986328,327.386719 180.550781,327.916016 Z M270.96963,85.3005117 C281.076172,98.3173828 301.041432,104.886676 313.485352,121.638672 C328.327145,141.618684 331.539621,173.848416 304.828125,183.304688 C284.780323,190.401911 268.689453,170.467773 245.618606,158.258896 C222.547758,146.050018 217.08576,128.293969 215.660221,117.17823 C210.159101,74.2828625 247.762365,55.4103691 270.96963,85.3005117 Z"/>
    <path id="illustration-404-c" d="M2,15 L14,15 L14,15 C15.1045695,15 16,15.8954305 16,17 L16,35 L16,35 C16,36.1045695 15.1045695,37 14,37 L2,37 L2,37 C0.8954305,37 1.3527075e-16,36.1045695 0,35 L0,17 L0,17 C-1.3527075e-16,15.8954305 0.8954305,15 2,15 Z"/>
    <path id="illustration-404-e" d="M44.8792419,113.384486 C53.1483738,119.947616 71.0155714,120.872295 81.201002,119.386781 C93.1591285,117.642725 107.028668,105.730723 106.999955,94.6063046 C106.946786,74.0065725 82.5739529,78.0573763 83.1434558,53.4032641 C83.7129587,28.7491518 51.3611773,47.9100022 51.3978051,25.2777155 C51.4344329,2.64542877 22.0152369,-6.25847165 8.00452057,4.6231461 C-6.00619575,15.5047639 -0.597441695,35.488173 16.2599494,42.1544752 C33.1173405,48.8207774 14.514338,68.5777612 35.676217,77.3779476 C56.838096,86.1781341 26.9017993,99.1159638 44.8792419,113.384486 Z"/>
    <path id="illustration-404-g" d="M2.30601937,0 L40.6939806,0 L40.6939806,8.8817842e-16 C41.7985501,6.85272294e-16 42.6939806,0.8954305 42.6939806,2 C42.6939806,2.09463774 42.6872634,2.18915613 42.6738796,2.28284271 L37.2453082,40.2828427 L37.2453082,40.2828427 C37.1045514,41.2681402 36.2607099,42 35.2654092,42 L7.7345908,42 L7.7345908,42 C6.73929005,42 5.8954486,41.2681402 5.75469182,40.2828427 L0.326120387,2.28284271 L0.326120387,2.28284271 C0.169910671,1.1893747 0.929708645,0.176310729 2.02317666,0.0201010127 C2.11686324,0.00671721544 2.21138164,-6.48749144e-16 2.30601937,-6.66133815e-16 Z"/>
  </defs>
  <g fill="none" fill-rule="evenodd">
    <rect width="360" height="360" fill="#FFF"/>
    <g transform="translate(20 16)">
      <mask id="illustration-404-b" fill="#fff">
        <use xlink:href="#illustration-404-a"/>
      </mask>
      <use fill="#FFF8F4" xlink:href="#illustration-404-a"/>
      <g mask="url(#illustration-404-b)">
        <g transform="translate(30 37)">
          <rect width="22" height="11" x="124" y="20" fill="#FFE1CE" rx="2"/>
          <rect width="22" height="11" x="160" y="267" fill="#FFE1CE" rx="2"/>
          <rect width="22" height="11" x="11" y="213" fill="#FFE1CE" rx="2"/>
          <rect width="22" height="11" x="203" y="213" fill="#EBEBEB" rx="2"/>
          <rect width="22" height="11" x="31" y="158" fill="#EBEBEB" rx="2"/>
          <rect width="22" height="11" x="99" y="103" fill="#FFE1CE" rx="2"/>
          <rect width="22" height="11" x="110" y="6" fill="#FFF" rx="2"/>
          <rect width="22" height="11" x="113" y="87" fill="#FFF" rx="2"/>
          <rect width="22" height="11" x="42" y="108" fill="#FFF" rx="2"/>
          <rect width="22" height="11" x="220" y="229" fill="#FFF" rx="2"/>
          <rect width="22" height="11" x="160" y="158" fill="#FFF" rx="2"/>
          <rect width="22" height="11" fill="#FFF" rx="2"/>
          <rect width="22" height="11" x="257" y="72" fill="#FFF" rx="2"/>
          <rect width="22" height="11" x="201" y="92" fill="#FFE1CE" rx="2"/>
        </g>
      </g>
      <g mask="url(#illustration-404-b)">
        <g transform="translate(-31 75)">
          <path fill="#FFF" d="M30,0 L165,0 L165,0 C166.104569,-2.02906125e-16 167,0.8954305 167,2 L167,125 L30,125 L30,125 C28.8954305,125 28,124.104569 28,123 L28,2 L28,2 C28,0.8954305 28.8954305,2.02906125e-16 30,0 Z"/>
          <path fill="#FFEFE5" d="M0.20543531,49.519106 C4.4174325,41.839702 11.8339887,38 22.4551038,38 C39.3799085,38 39.6230726,46 51.4551038,46 C63.2871351,46 69.1523694,26 94.4551038,26 C110.951661,26 119.922887,33.969902 121.368782,49.9097059 L121.368737,49.9097099 C121.418628,50.4597119 121.013208,50.9460208 120.463206,50.9959113 C120.433171,50.9986357 120.403029,51 120.372871,51 L1.08221167,51 L1.08221167,50.9999979 C0.529928062,50.9999979 0.0822137409,50.5522836 0.0822137409,50 C0.0822137409,49.8318929 0.124593443,49.6664986 0.20543531,49.519106 Z" transform="matrix(-1 0 0 1 121.455 0)"/>
          <rect width="135" height="15" x="39" y="125" fill="#FFD5BA"/>
        </g>
      </g>
    </g>
    <g transform="translate(109 289)">
      <path fill="#FF9248" d="M6.10809941,0 L91.8919006,0 L91.8919006,8.8817842e-16 C95.2056091,-8.55003309e-15 97.8919006,2.6862915 97.8919006,6 C97.8919006,6.03571073 97.8915818,6.07142074 97.8909442,6.10712578 L97.0350766,54.0357086 L97.0350766,54.0357086 C97.0156039,55.1261841 96.1260448,56 95.0353954,56 L2.96460457,56 L2.96460457,56 C1.87395524,56 0.984396144,55.1261841 0.964923368,54.0357086 L0.109055817,6.10712578 L0.109055817,6.10712578 C0.0498918837,2.79394549 2.68779334,0.0601203377 6.00097364,0.000956403927 C6.03667867,0.000318814014 6.07238869,8.94738374e-16 6.10809941,8.8817842e-16 Z"/>
      <path fill="#FFAA71" d="M49,36 C52.3137085,36 51.3103027,33.3137085 51.3103027,30 C51.3103027,26.6862915 52.3137085,24 49,24 C45.6862915,24 43,26.6862915 43,30 C43,33.3137085 45.6862915,36 49,36 Z"/>
    </g>
    <g transform="translate(73 308)">
      <polygon fill="#FFAC77" points="3.942 3.003 4.942 .003 5.942 3.003 5.942 32.003 3.942 32.003" transform="rotate(-7 4.942 16.003)"/>
      <polygon fill="#FFAC77" points="6.753 6.221 7.753 3.221 8.753 6.221 8.753 35.221 6.753 35.221" transform="rotate(-3 7.753 19.22)"/>
      <polygon fill="#FFAC77" points="8.852 7.103 9.852 4.103 10.852 7.103 10.852 36.103 8.852 36.103" transform="rotate(20 9.852 20.103)"/>
      <mask id="illustration-404-d" fill="#fff">
        <use xlink:href="#illustration-404-c"/>
      </mask>
      <use fill="#FFC7A4" xlink:href="#illustration-404-c"/>
      <path fill="#000" fill-opacity=".08" d="M-2,14 L20,14 L20,39 L-2,39 L-2,14 Z M4,15 L4,15 C2.8954305,15 2,15.8954305 2,17 L2,17 L2,35 C2,36.1045695 2.8954305,37 4,37 L16,37 C17.1045695,37 18,36.1045695 18,35 L18,17 C18,15.8954305 17.1045695,15 16,15 L4,15 Z" mask="url(#illustration-404-d)"/>
    </g>
    <g transform="translate(197 183)">
      <g transform="matrix(-1 0 0 1 149.375 .291)">
        <mask id="illustration-404-f" fill="#fff">
          <use xlink:href="#illustration-404-e"/>
        </mask>
        <use fill="#FFC7A4" xlink:href="#illustration-404-e"/>
        <path stroke="#FFEFE5" stroke-linecap="round" stroke-width="2" d="M79.2373047,125.633789 C65.7552545,76.7638578 43.1846165,33.7967354 18,16" mask="url(#illustration-404-f)"/>
        <path fill="#000" fill-opacity=".08" d="M69.4858132,131.708779 C82.1439175,127.29374 78.6165676,128.561949 85.351814,100.16816 C92.0870603,71.774371 61.7253901,82.758372 65.4858132,59.2087792 C66.3196547,53.9868596 65.6494912,49.6915836 64.1997279,46.6340779 C62.4858132,50.7087792 63.5358621,53.7087792 63.0358621,57.7087792 C62.361194,63.1061235 60.9858132,65.2087792 60.1857644,66.6088036 C58.9969451,86.4714827 64.8707998,133.318457 69.4858132,131.708779 Z" mask="url(#illustration-404-f)" transform="matrix(-1 0 0 1 146.361 0)"/>
      </g>
      <g transform="rotate(11 -125.965 112.975)">
        <path fill="#FFE5D4" d="M67.1230469,87.0986328 C79.7811511,82.6835937 76.4392862,84.9929794 77.0087891,60.3388672 C77.578292,35.6847549 50.3823175,49.3207633 50.4189453,26.6884766 C50.4555731,4.05618986 22.0986069,-5.90603181 8.08789062,4.97558594 C-5.9228257,15.8572037 2.23831204,34.7543562 19.0957031,41.4206584 C35.9530942,48.0869606 18.2129558,66.817001 39.3748348,75.6171875 C60.5367139,84.417374 57.3914268,90.4929391 67.1230469,87.0986328 Z"/>
        <path stroke="#FFF5EF" stroke-linecap="round" stroke-width="2" d="M72.1025391,99.1005859 C56.2714844,51.2490234 41.3066406,36.4003906 18.5556641,16.1806641"/>
      </g>
      <g transform="translate(52 120)">
        <mask id="illustration-404-h" fill="#fff">
          <use xlink:href="#illustration-404-g"/>
        </mask>
        <use fill="#FFAA71" xlink:href="#illustration-404-g"/>
        <path fill="#000" fill-opacity=".08" d="M5,42 L5,47 L45,47 L45,-2 L5,-2 L5,1.77635684e-15 L37.6939806,0 L37.6939806,8.8817842e-16 C38.7985501,8.8817842e-16 39.6939806,0.8954305 39.6939806,2 C39.6939806,2.09463774 39.6872634,2.18915613 39.6738796,2.28284271 L34.2453082,40.2828427 L34.2453082,40.2828427 C34.1045514,41.2681402 33.2607099,42 32.2654092,42 L5,42 Z" mask="url(#illustration-404-h)"/>
      </g>
    </g>
  </g>
</svg>
