<?xml version="1.0" encoding="UTF-8"?>
<svg width="17px" height="17px" viewBox="0 0 17 17" version="1.1" xmlns="http://www.w3.org/2000/svg" xmlns:xlink="http://www.w3.org/1999/xlink">
    <!-- Generator: Sketch 46.2 (44496) - http://www.bohemiancoding.com/sketch -->
    <title>checkedbox</title>
    <desc>Created with Sketch.</desc>
    <defs></defs>
    <g id="🖥-Website" stroke="none" stroke-width="1" fill="none" fill-rule="evenodd">
        <g id="Modal" transform="translate(-550.000000, -758.000000)" fill="#FF7F28">
            <g id="Small-select-field" transform="translate(550.000000, 602.000000)">
                <g id="Group-3" transform="translate(0.000000, 156.000000)">
                    <path d="M7.24766247,11.0664749 L4.82455079,8.17872287 C4.55829945,7.86141687 4.08523275,7.8200289 3.76792675,8.08628024 C3.45062076,8.35253159 3.40923278,8.82559828 3.67548413,9.14290428 L3.67548413,9.14290428 L6.66861804,12.7099824 C6.88657551,12.969734 7.24312642,13.0445843 7.53936885,12.9171316 C7.64919116,12.8726171 7.75003642,12.8013547 7.83151407,12.7042534 L14.1013884,5.23210817 C14.3676397,4.91480217 14.3262518,4.44173548 14.0089458,4.17548413 C13.6916398,3.90923278 13.2185731,3.95062076 12.9523217,4.26792675 L7.24766247,11.0664749 Z M4,-2.84217094e-14 L13,-2.84217094e-14 C15.209139,-2.88275217e-14 17,1.790861 17,4 L17,13 C17,15.209139 15.209139,17 13,17 L4,17 C1.790861,17 2.09880649e-13,15.209139 2.09610107e-13,13 L2.09610107e-13,4 L2.09610107e-13,4 C2.09339566e-13,1.790861 1.790861,-2.80158972e-14 4,-2.84217094e-14 L4,-2.84217094e-14 Z" id="checkedbox"></path>
                </g>
            </g>
        </g>
    </g>
</svg>