<?xml version="1.0" encoding="UTF-8"?>
<svg width="19px" height="18px" viewBox="0 0 19 18" version="1.1" xmlns="http://www.w3.org/2000/svg" xmlns:xlink="http://www.w3.org/1999/xlink">
    <!-- Generator: Sketch 46.2 (44496) - http://www.bohemiancoding.com/sketch -->
    <title>Group 6</title>
    <desc>Created with Sketch.</desc>
    <defs></defs>
    <g id="🖥-Website" stroke="none" stroke-width="1" fill="none" fill-rule="evenodd">
        <g id="Modal" transform="translate(-512.000000, -1750.000000)" fill="#FFFFFF">
            <g id="Group-4" transform="translate(0.000000, 1046.000000)">
                <g id="Group-2-Copy" transform="translate(450.000000, 64.000000)">
                    <g id="content" transform="translate(50.000000, 50.000000)">
                        <g id="Text-transform-Copy-2" transform="translate(0.000000, 548.000000)">
                            <g id="Group" transform="translate(0.000000, 28.000000)">
                                <g id="Group-6" transform="translate(12.000000, 14.000000)">
                                    <rect id="Rectangle-6" fill-opacity="0.200000018" x="0" y="1" width="17" height="17" rx="4"></rect>
                                    <path d="M7.85478578,11.2839663 L4.14837192,6.86683423 C3.79337012,6.44375957 3.16261453,6.3885756 2.73953986,6.7435774 L2.73953986,6.7435774 L2.73953986,6.7435774 C2.3164652,7.09857919 2.26128124,7.72933479 2.61628303,8.15240945 L7.08368756,13.4764548 C7.27906176,13.7092928 7.5579568,13.8307032 7.83978885,13.8336361 C8.13168986,13.8392771 8.42349473,13.717653 8.62577226,13.476588 L8.62577226,13.476588 L18.1100011,2.1737242 L18.1100011,2.1737242 C18.4650029,1.75064953 18.409819,1.11989394 17.9867443,0.764892143 L17.9867443,0.764892143 L17.9867443,0.764892143 C17.5636696,0.409890349 16.932914,0.465074313 16.5779122,0.888148976 L7.85478578,11.2839663 Z" id="Combined-Shape"></path>
                                </g>
                            </g>
                        </g>
                    </g>
                </g>
            </g>
        </g>
    </g>
</svg>