<?xml version="1.0" encoding="UTF-8"?>
<svg width="360px" height="360px" viewBox="0 0 360 360" version="1.1" xmlns="http://www.w3.org/2000/svg" xmlns:xlink="http://www.w3.org/1999/xlink">
    <!-- Generator: Sketch 46.2 (44496) - http://www.bohemiancoding.com/sketch -->
    <title>illustration-problem</title>
    <desc>Created with Sketch.</desc>
    <defs>
        <path d="M180.550781,327.916016 C77.1152344,328.445312 17.9883499,332.131411 4.453125,295.005859 C-9.08209987,257.880308 47.5736549,231.029371 39.8671875,205.921875 C30.6639556,175.937955 7.41198863,150.070759 1.68164063,115.185547 C-8.84710212,51.0886678 99.4346288,-21.4908132 182.777344,7.58984375 C229.992187,24.0644531 194.98654,84.3466791 204.322266,126.837891 C211.777875,160.771821 251.015001,169.930201 274.841797,190.892578 C328.503906,238.103516 283.986328,327.386719 180.550781,327.916016 Z M270.96963,85.3005117 C281.076172,98.3173828 301.041432,104.886676 313.485352,121.638672 C328.327145,141.618684 331.539621,173.848416 304.828125,183.304688 C284.780323,190.401911 268.689453,170.467773 245.618606,158.258896 C222.547758,146.050018 217.08576,128.293969 215.660221,117.17823 C210.159101,74.2828625 247.762365,55.4103691 270.96963,85.3005117 Z" id="path-1"></path>
        <path d="M27.5126311,24.0765137 C28.8391884,27.4314915 28.6453151,31.7502616 26.931011,37.0328242 C24.3595549,44.956668 3.90538908,36.0132823 1.11108398,48.58953 C-1.68322111,61.1657777 30.5953927,63.2683529 39.2435495,62.4090077 C45.0089874,61.8361109 54.9560603,62.1026036 69.0847682,63.2084859 C77.7929131,64.1626127 82.0792001,61.504762 81.9436292,55.2349336 C81.8080584,48.9651053 73.1754257,43.379459 56.0457314,38.4779949 C53.1927726,31.8325913 52.3356205,26.1511527 53.4742753,21.433679 C54.7147838,17.5212067 56.5455172,12.7683503 58.9664756,7.17510968 L58.9664756,0.241293289 L53.4742753,0.804138366 L45.5665604,11.0280354 L34.9598967,24.0765137 L29.932887,21.433679 L27.5126311,24.0765137 Z" id="path-3"></path>
        <path d="M18.5295061,3.46574743 C50.4204744,15.2877742 33.3690622,7.04442377 53.4267268,1.47138453 C75.9407774,-4.78416367 65.5469337,27.5792373 50.6004774,31.1297261 C22.9902182,37.6884658 -24.5742704,-2.09593207 17.6387959,1.87241284 L18.5295061,3.46574743 Z" id="path-5"></path>
        <path d="M2.48113165,6.52444479 C-1.57761468,27.9163111 -0.301117105,39.1424989 6.31062438,40.2030084 C10.6247855,41.2405791 19.3970424,38.4911432 23.0031002,37.75309 C25.4071387,37.2610546 27.5384929,33.5833039 29.3971628,26.7198378 L35.7343258,10.7853609 L20.0590652,0 L5.18651615,1.80296089 L2.48113165,6.52444479 Z" id="path-7"></path>
        <path d="M2,15 L14,15 L14,15 C15.1045695,15 16,15.8954305 16,17 L16,35 L16,35 C16,36.1045695 15.1045695,37 14,37 L2,37 L2,37 C0.8954305,37 1.3527075e-16,36.1045695 0,35 L0,17 L0,17 C-1.3527075e-16,15.8954305 0.8954305,15 2,15 Z" id="path-9"></path>
        <path d="M44.8792419,113.384486 C53.1483738,119.947616 71.0155714,120.872295 81.201002,119.386781 C93.1591285,117.642725 107.028668,105.730723 106.999955,94.6063046 C106.946786,74.0065725 82.5739529,78.0573763 83.1434558,53.4032641 C83.7129587,28.7491518 51.3611773,47.9100022 51.3978051,25.2777155 C51.4344329,2.64542877 22.0152369,-6.25847165 8.00452057,4.6231461 C-6.00619575,15.5047639 -0.597441695,35.488173 16.2599494,42.1544752 C33.1173405,48.8207774 14.514338,68.5777612 35.676217,77.3779476 C56.838096,86.1781341 26.9017993,99.1159638 44.8792419,113.384486 Z" id="path-11"></path>
        <path d="M2.30601937,0 L40.6939806,0 L40.6939806,8.8817842e-16 C41.7985501,6.85272294e-16 42.6939806,0.8954305 42.6939806,2 C42.6939806,2.09463774 42.6872634,2.18915613 42.6738796,2.28284271 L37.2453082,40.2828427 L37.2453082,40.2828427 C37.1045514,41.2681402 36.2607099,42 35.2654092,42 L7.7345908,42 L7.7345908,42 C6.73929005,42 5.8954486,41.2681402 5.75469182,40.2828427 L0.326120387,2.28284271 L0.326120387,2.28284271 C0.169910671,1.1893747 0.929708645,0.176310729 2.02317666,0.0201010127 C2.11686324,0.00671721544 2.21138164,-6.48749144e-16 2.30601937,-6.66133815e-16 Z" id="path-13"></path>
    </defs>
    <g id="ðŸ“-Illustrations" stroke="none" stroke-width="1" fill="none" fill-rule="evenodd">
        <g id="Artboard-2-Copy" transform="translate(-3604.000000, -337.000000)">
            <g id="illustration-problem" transform="translate(3604.000000, 337.000000)">
                <rect id="area" fill="#FFFFFF" x="0" y="0" width="360" height="360"></rect>
                <g id="mask" transform="translate(20.000000, 16.000000)">
                    <mask id="mask-2" fill="white">
                        <use xlink:href="#path-1"></use>
                    </mask>
                    <use id="blob" fill="#FFF8F4" xlink:href="#path-1"></use>
                    <g id="brick-wall" mask="url(#mask-2)">
                        <g transform="translate(30.000000, 37.000000)">
                            <rect id="Rectangle-2" fill="#FFE1CE" x="124" y="20" width="22" height="11" rx="2"></rect>
                            <rect id="Rectangle-2-Copy-7" fill="#FFE1CE" x="160" y="267" width="22" height="11" rx="2"></rect>
                            <rect id="Rectangle-2-Copy-9" fill="#FFE1CE" x="11" y="213" width="22" height="11" rx="2"></rect>
                            <rect id="Rectangle-2-Copy-2" fill="#EBEBEB" x="203" y="213" width="22" height="11" rx="2"></rect>
                            <rect id="Rectangle-2-Copy-3" fill="#EBEBEB" x="31" y="158" width="22" height="11" rx="2"></rect>
                            <rect id="Rectangle-2-Copy-12" fill="#FFE1CE" x="99" y="103" width="22" height="11" rx="2"></rect>
                            <rect id="Rectangle-2-Copy-4" fill="#FFFFFF" x="110" y="6" width="22" height="11" rx="2"></rect>
                            <rect id="Rectangle-2-Copy-13" fill="#FFFFFF" x="113" y="87" width="22" height="11" rx="2"></rect>
                            <rect id="Rectangle-2-Copy-5" fill="#FFFFFF" x="42" y="108" width="22" height="11" rx="2"></rect>
                            <rect id="Rectangle-2-Copy-8" fill="#FFFFFF" x="220" y="229" width="22" height="11" rx="2"></rect>
                            <rect id="Rectangle-2-Copy-10" fill="#FFFFFF" x="160" y="158" width="22" height="11" rx="2"></rect>
                            <rect id="Rectangle-2-Copy-11" fill="#FFFFFF" x="0" y="0" width="22" height="11" rx="2"></rect>
                            <rect id="Rectangle-2-Copy-6" fill="#FFFFFF" x="257" y="72" width="22" height="11" rx="2"></rect>
                            <rect id="Rectangle-2-Copy" fill="#FFE1CE" x="201" y="92" width="22" height="11" rx="2"></rect>
                        </g>
                    </g>
                    <g id="window" mask="url(#mask-2)">
                        <g transform="translate(-31.000000, 75.000000)">
                            <path d="M30,0 L165,0 L165,0 C166.104569,-2.02906125e-16 167,0.8954305 167,2 L167,125 L30,125 L30,125 C28.8954305,125 28,124.104569 28,123 L28,2 L28,2 C28,0.8954305 28.8954305,2.02906125e-16 30,0 Z" id="window-" fill="#FFFFFF"></path>
                            <path d="M0.20543531,49.519106 C4.4174325,41.839702 11.8339887,38 22.4551038,38 C39.3799085,38 39.6230726,46 51.4551038,46 C63.2871351,46 69.1523694,26 94.4551038,26 C110.951661,26 119.922887,33.969902 121.368782,49.9097059 L121.368737,49.9097099 C121.418628,50.4597119 121.013208,50.9460208 120.463206,50.9959113 C120.433171,50.9986357 120.403029,51 120.372871,51 L1.08221167,51 L1.08221167,50.9999979 C0.529928062,50.9999979 0.0822137409,50.5522836 0.0822137409,50 C0.0822137409,49.8318929 0.124593443,49.6664986 0.20543531,49.519106 Z" id="cloud" fill="#FFEFE5" transform="translate(60.727552, 38.500000) scale(-1, 1) translate(-60.727552, -38.500000) "></path>
                            <rect id="window-bar" fill="#FFD5BA" x="39" y="125" width="135" height="15"></rect>
                        </g>
                    </g>
                    <g id="Group-12-Copy" mask="url(#mask-2)">
                        <g transform="translate(138.000000, 289.500000) scale(-1, 1) translate(-138.000000, -289.500000) translate(97.000000, 246.000000)" id="Group-12">
                            <g transform="translate(41.000000, 43.500000) scale(-1, 1) translate(-41.000000, -43.500000) ">
                                <g id="Path-8" transform="translate(0.000000, 22.373134)">
                                    <mask id="mask-4" fill="white">
                                        <use xlink:href="#path-3"></use>
                                    </mask>
                                    <use id="Mask" fill="#C0C0C0" xlink:href="#path-3"></use>
                                    <path d="M26.9510305,27.7911876 C32.2305673,31.6851918 38.6155685,29.074288 42.7896407,39.4732003 C43.601885,41.4967535 43.6284501,44.0152236 44.6351254,46.069931 C51.2200816,59.5103695 67.6558417,54.6044831 76.4709216,45.6536224 C86.2015449,35.7731159 58.4728293,-1.57140583 53.2867239,1.75118864 C49.6638852,4.07224131 44.9677598,12.363512 41.6048006,15.0357823 C34.9633579,20.3131969 27.4242993,24.3947861 20.3340486,29.074288 L26.9510305,27.7911876 Z" id="Path-7" fill="#B5B5B5" mask="url(#mask-4)"></path>
                                    <g id="Group-13" mask="url(#mask-4)">
                                        <g transform="translate(3.904762, 36.298507)">
                                            <mask id="mask-6" fill="white">
                                                <use xlink:href="#path-5"></use>
                                            </mask>
                                            <use id="Path-4" stroke="none" fill="#999999" fill-rule="evenodd" xlink:href="#path-5"></use>
                                            <path d="M23.0462686,-8.50731985 C28.3258054,-4.61331562 34.7108066,-7.22421948 38.8848788,3.17469282 C39.6971231,5.19824605 39.7236882,7.71671614 40.7303635,9.77142352 C47.3153197,23.211862 63.7510798,18.3059756 72.5661597,9.35511493 C82.296783,-0.525391583 54.5680674,-37.8699133 49.381962,-34.5473188 C45.7591233,-32.2262662 41.0629979,-23.9349955 37.7000387,-21.2627252 C31.058596,-15.9853106 23.5195374,-11.9037214 16.4292867,-7.22421948 L23.0462686,-8.50731985 Z" id="Path-7" stroke="none" fill="#878787" fill-rule="evenodd" mask="url(#mask-6)"></path>
                                        </g>
                                    </g>
                                </g>
                                <g id="Path-10" transform="translate(21.825397, 10.686567)">
                                    <mask id="mask-8" fill="white">
                                        <use xlink:href="#path-7"></use>
                                    </mask>
                                    <use id="Mask" fill="#FFE1CE" xlink:href="#path-7"></use>
                                    <path d="M-3.84729699,45.0946399 C21.8504537,61.6224897 0.529297787,44.3327629 5.91913132,28.7472975 C5.82787056,27.3171852 3.09566571,27.7524181 2.93431455,26.3286971 C2.66822338,23.9807773 4.65136454,20.9117371 4.33091518,18.5708223 C-1.05720771,-20.7899583 -6.28359612,43.4624639 -7.20168067,18.5708223 L-3.84729699,45.0946399 Z" fill="#FFD5BA" mask="url(#mask-8)"></path>
                                </g>
                                <path d="M24.1208009,3.7193972 C26.2920423,2.0497868 29.3811355,1.46015247 34.4091188,1.65229735 C35.9333033,1.71054422 37.2571414,1.8285281 38.4247734,1.99410046 C37.7421498,1.62712813 36.9610413,1.24608195 36.0668888,0.856568204 C38.3175167,0.693360858 41.0490686,1.61320574 44.2615445,3.61610284 C44.8611124,3.88641646 45.4159685,4.1724269 45.954081,4.46643655 C45.7778625,4.13918152 45.6033798,3.7983739 45.4306331,3.44401371 C46.3133111,4.28050076 47.1052571,4.96077887 47.8117125,5.51489415 C48.0499252,5.6489303 48.2912569,5.7827751 48.5381479,5.91575691 C52.0421637,7.80310879 52.9290609,7.92948643 55.6812698,8.32068717 C57.5073349,8.38911696 60.4158059,9.25789032 62.2389116,11.7210729 C63.5670989,13.3109392 64.3835471,15.851246 64.6882562,19.3419934 C64.4150686,18.7702474 64.1496804,18.2469259 63.8929227,17.7677945 C63.8906419,17.8314513 63.8879085,17.8955053 63.8847165,17.9599586 C64.6014385,34.7114914 56.1077551,36.5482961 53.1286582,44.7039121 C54.378449,36.9683455 58.1684958,32.4516255 58.388234,29.7496775 C58.6079722,27.0477295 55.4925518,27.7261489 54.6061314,29.4500951 C53.7197111,31.1740413 53.0618962,34.0356039 52.153043,33.9043625 C52.1940957,31.660189 49.0511272,26.1003311 47.7768078,24.7780361 C46.8805535,24.3534199 46.8805535,21.3748131 47.7768078,15.8422156 C40.5675811,17.7985025 32.898923,18.1041685 24.7708333,16.7592136 C24.2309986,17.8736415 24.0779401,18.6552388 23.7915446,20.5964046 C23.0496313,20.8581766 18.4970936,13.5188383 20.8164993,8.32068717 C20.8959056,8.14272507 20.9761477,7.96876328 21.0574058,7.79874909 C21.820441,5.9202694 23.1101151,3.92646024 24.9264283,1.81732162 C24.6147183,2.50254448 24.3482873,3.13540434 24.1208009,3.7193972 Z" id="Combined-Shape" fill="#783B12"></path>
                            </g>
                        </g>
                    </g>
                </g>
                <g id="computer" transform="translate(109.000000, 289.000000)">
                    <path d="M6.10809941,0 L91.8919006,0 L91.8919006,8.8817842e-16 C95.2056091,-8.55003309e-15 97.8919006,2.6862915 97.8919006,6 C97.8919006,6.03571073 97.8915818,6.07142074 97.8909442,6.10712578 L97.0350766,54.0357086 L97.0350766,54.0357086 C97.0156039,55.1261841 96.1260448,56 95.0353954,56 L2.96460457,56 L2.96460457,56 C1.87395524,56 0.984396144,55.1261841 0.964923368,54.0357086 L0.109055817,6.10712578 L0.109055817,6.10712578 C0.0498918837,2.79394549 2.68779334,0.0601203377 6.00097364,0.000956403927 C6.03667867,0.000318814014 6.07238869,8.94738374e-16 6.10809941,8.8817842e-16 Z" id="Rectangle-20" fill="#FF8736"></path>
                    <path d="M49,36 C52.3137085,36 51.3103027,33.3137085 51.3103027,30 C51.3103027,26.6862915 52.3137085,24 49,24 C45.6862915,24 43,26.6862915 43,30 C43,33.3137085 45.6862915,36 49,36 Z" id="Combined-Shape" fill="#FFAA71"></path>
                </g>
                <g id="paper" transform="translate(35.000000, 135.000000)" fill="#FF9248">
                    <path d="M15.3816145,60.0103875 C23.9740858,56.0272395 36.0369976,56.1785302 48.0873019,60.0103875 C53.4572812,75.5210463 54.3902406,94.5920796 48.0873019,112.511623 C35.2259113,116.20984 26.9898137,114.668356 15.3816145,112.511623 C21.1012435,96.309229 23.6630993,81.7248055 15.3816145,60.0103875 Z" id="Rectangle-23" transform="translate(33.926615, 85.911768) rotate(-49.000000) translate(-33.926615, -85.911768) "></path>
                    <path d="M60.7833294,0.801901269 C69.3758007,-3.18124667 81.9041572,-4.20622254 89.0813764,3.02296136 C96.5188961,17.0022377 99.7919555,35.3835934 93.4890168,53.3031363 C80.6276263,57.0013534 72.3915287,55.4598693 60.7833294,53.3031363 C66.5029584,37.1007428 67.7576743,20.3637514 60.7833294,0.801901269 Z" id="Rectangle-23-Copy-2" transform="translate(78.805017, 26.615654) rotate(107.000000) translate(-78.805017, -26.615654) "></path>
                    <path d="M177.448414,44.9903776 C183.729831,41.162534 193.802113,43.7690776 202.905381,47.1662142 C203.276811,47.2878861 215.884587,79.1415032 209.581648,97.0610462 C196.720257,100.759263 189.056613,99.6483456 177.448414,97.4916127 C183.168043,81.2892192 188.651613,63.4244661 177.448414,44.9903776 Z" id="Rectangle-23-Copy" transform="translate(194.395865, 71.286510) scale(-1, 1) rotate(-49.000000) translate(-194.395865, -71.286510) "></path>
                </g>
                <g id="pencils" transform="translate(73.000000, 308.000000)">
                    <polygon id="Rectangle-22" fill="#FFAC77" transform="translate(4.942456, 16.002608) rotate(-7.000000) translate(-4.942456, -16.002608) " points="3.94245565 3.00260777 4.94245565 0.00260776967 5.94245565 3.00260777 5.94245565 32.0026078 3.94245565 32.0026078"></polygon>
                    <polygon id="Rectangle-22-Copy-2" fill="#FFAC77" transform="translate(7.753491, 19.220869) rotate(-3.000000) translate(-7.753491, -19.220869) " points="6.7534908 6.22086949 7.7534908 3.22086949 8.7534908 6.22086949 8.7534908 35.2208695 6.7534908 35.2208695"></polygon>
                    <polygon id="Rectangle-22-Copy" fill="#FFAC77" transform="translate(9.852124, 20.103194) rotate(20.000000) translate(-9.852124, -20.103194) " points="8.85212361 7.10319371 9.85212361 4.10319371 10.8521236 7.10319371 10.8521236 36.1031937 8.85212361 36.1031937"></polygon>
                    <mask id="mask-10" fill="white">
                        <use xlink:href="#path-9"></use>
                    </mask>
                    <use id="Rectangle-21" fill="#FFC7A4" xlink:href="#path-9"></use>
                    <path d="M-2,14 L20,14 L20,39 L-2,39 L-2,14 Z M4,15 L4,15 C2.8954305,15 2,15.8954305 2,17 L2,17 L2,35 C2,36.1045695 2.8954305,37 4,37 L16,37 C17.1045695,37 18,36.1045695 18,35 L18,17 C18,15.8954305 17.1045695,15 16,15 L4,15 Z" id="Combined-Shape" fill-opacity="0.1" fill="#000000" mask="url(#mask-10)"></path>
                </g>
                <g id="plant" transform="translate(197.000000, 183.000000)">
                    <g id="Group" transform="translate(95.875219, 60.291221) scale(-1, 1) translate(-95.875219, -60.291221) translate(42.375219, 0.291221)">
                        <mask id="mask-12" fill="white">
                            <use xlink:href="#path-11"></use>
                        </mask>
                        <use id="Oval-Copy" fill="#FFC7A4" xlink:href="#path-11"></use>
                        <path d="M69.4858132,131.708779 C82.1439175,127.29374 78.6165676,128.561949 85.351814,100.16816 C92.0870603,71.774371 61.7253901,82.758372 65.4858132,59.2087792 C66.3196547,53.9868596 65.6494912,49.6915836 64.1997279,46.6340779 C62.4858132,50.7087792 63.5358621,53.7087792 63.0358621,57.7087792 C62.361194,63.1061235 60.9858132,65.2087792 60.1857644,66.6088036 C58.9969451,86.4714827 64.8707998,133.318457 69.4858132,131.708779 Z" id="Oval-Copy" fill-opacity="0.1" fill="#000000" mask="url(#mask-12)" transform="translate(73.180516, 89.191657) scale(-1, 1) translate(-73.180516, -89.191657) "></path>
                        <path d="M79.2373047,125.633789 C65.7552545,76.7638578 43.1846165,33.7967354 18,16" id="Path-3" stroke="#FFEFE5" stroke-width="2" stroke-linecap="round" mask="url(#mask-12)"></path>
                    </g>
                    <g id="Group-Copy" transform="translate(47.985352, 82.633789) rotate(11.000000) translate(-47.985352, -82.633789) translate(8.985352, 32.633789)">
                        <path d="M67.1230469,87.0986328 C79.7811511,82.6835937 76.4392862,84.9929794 77.0087891,60.3388672 C77.578292,35.6847549 50.3823175,49.3207633 50.4189453,26.6884766 C50.4555731,4.05618986 22.0986069,-5.90603181 8.08789062,4.97558594 C-5.9228257,15.8572037 2.23831204,34.7543562 19.0957031,41.4206584 C35.9530942,48.0869606 18.2129558,66.817001 39.3748348,75.6171875 C60.5367139,84.417374 57.3914268,90.4929391 67.1230469,87.0986328 Z" id="Oval-Copy" fill="#FFE5D4"></path>
                        <path d="M72.1025391,99.1005859 C56.2714844,51.2490234 41.3066406,36.4003906 18.5556641,16.1806641" id="Path-3" stroke="#FFF5EF" stroke-width="2" stroke-linecap="round"></path>
                    </g>
                    <g id="Group-21" transform="translate(52.000000, 120.000000)">
                        <mask id="mask-14" fill="white">
                            <use xlink:href="#path-13"></use>
                        </mask>
                        <use id="Rectangle-17" fill="#FFAA71" xlink:href="#path-13"></use>
                        <path d="M5,42 L5,47 L45,47 L45,-2 L5,-2 L5,1.77635684e-15 L37.6939806,0 L37.6939806,8.8817842e-16 C38.7985501,8.8817842e-16 39.6939806,0.8954305 39.6939806,2 C39.6939806,2.09463774 39.6872634,2.18915613 39.6738796,2.28284271 L34.2453082,40.2828427 L34.2453082,40.2828427 C34.1045514,41.2681402 33.2607099,42 32.2654092,42 L5,42 Z" id="Combined-Shape" fill-opacity="0.1" fill="#000000" mask="url(#mask-14)"></path>
                    </g>
                </g>
            </g>
        </g>
    </g>
</svg>