<?xml version="1.0" encoding="UTF-8"?>
<svg width="360px" height="360px" viewBox="0 0 360 360" version="1.1" xmlns="http://www.w3.org/2000/svg" xmlns:xlink="http://www.w3.org/1999/xlink">
    <!-- Generator: Sketch 46.2 (44496) - http://www.bohemiancoding.com/sketch -->
    <title>illustration-notification</title>
    <desc>Created with Sketch.</desc>
    <defs>
        <path d="M41.4960938,295.361328 C49.1152344,351.732422 290.765963,334.156486 300.484375,257.587891 C310.202787,181.019296 159.572067,231.477398 226.216797,128.476562 C292.861527,25.4757272 158.083502,-10.6085384 97.3242188,4.03710937 C36.5649351,18.6827571 -8.1805083,58.5043735 2.34823445,122.601253 C12.8769772,186.698132 62.7226562,169.970703 77.2695312,209.871094 C91.8164062,249.771484 33.8769531,238.990234 41.4960938,295.361328 Z" id="path-1"></path>
        <path d="M76.3366545,192.624169 C90.4019068,203.773996 120.792841,205.344894 138.117592,202.821216 C158.457583,199.858312 182.048763,179.621511 181.999924,160.7227 C181.909487,125.726675 140.452892,132.608417 141.421579,90.7245751 C142.390266,48.8407334 87.3620025,81.3923019 87.424304,42.9432552 C87.4866054,4.49420845 37.4464777,-10.6322561 13.6151658,7.85406984 C-10.216146,26.3403958 -1.01620924,60.289375 27.6571102,71.6144774 C56.3304296,82.9395798 24.6879393,116.503894 60.6829112,131.454164 C96.677883,146.404433 45.7582006,168.383972 76.3366545,192.624169 Z" id="path-3"></path>
        <path d="M41.4960938,295.361328 C49.1152344,351.732422 290.765963,334.156486 300.484375,257.587891 C310.202787,181.019296 159.572067,231.477398 226.216797,128.476562 C292.861527,25.4757272 158.083502,-10.6085384 97.3242188,4.03710937 C36.5649351,18.6827571 -8.1805083,58.5043735 2.34823445,122.601253 C12.8769772,186.698132 62.7226562,169.970703 77.2695312,209.871094 C91.8164062,249.771484 33.8769531,238.990234 41.4960938,295.361328 Z" id="path-5"></path>
        <path d="M130.577026,7.0148489 C136.817809,18.6070442 153.514134,26.4572457 170.745361,30.6695548 C184.874037,34.1234206 201.218499,37.8535689 209.140901,31.8727676 C209.642589,36.2774432 157.65732,165.742758 233,574.14826 C211.438478,600.03199 138.688213,603.442525 107.143884,581.584143 C65.37377,246.185132 129.297606,4.81992704 130.577026,7.0148489 Z" id="path-7"></path>
        <rect id="path-9" x="0" y="0" width="79.2805755" height="134.337079" rx="2"></rect>
        <path d="M4.62062309,63.0482681 L3.69775535,62.901035 L26.0992681,16.4016311 L26.0992681,16.4016311 C27.6025591,13.2812107 30.3271285,11.1117676 33.4454385,10.2267469 L61.5119851,1.09424646 L61.5119851,1.09424646 C66.9191406,-0.665173761 72.7897028,1.88150422 75.1993508,7.0318912 L75.1993508,7.0318912 L75.1993508,7.0318912 C77.4309332,11.8016804 75.37331,17.4774134 70.6035209,19.7089958 C70.4789718,19.7672671 70.3531767,19.8228373 70.226224,19.8756674 L44.7757159,30.4666484 L41.848935,51.2917769 C52.3294391,55.6823809 59.8125,66.7286485 59.8125,78.7315967 C59.8125,94.9451935 45.8660335,108.931442 29.90625,108.931442 C13.9464665,108.931442 -4.26325641e-13,94.9451935 -4.26325641e-13,78.7315967 C-4.26325641e-13,72.9642553 1.6941678,67.585345 4.62062309,63.0482681 Z" id="path-11"></path>
    </defs>
    <g id="ðŸ“-Illustrations" stroke="none" stroke-width="1" fill="none" fill-rule="evenodd">
        <g id="Artboard-2-Copy" transform="translate(-3604.000000, -1157.000000)">
            <g id="illustration-notification" transform="translate(3604.000000, 1157.000000)">
                <rect id="Rectangle-3" fill="#FFFFFF" x="0" y="0" width="360" height="360"></rect>
                <g id="brick-wall-copy" transform="translate(23.000000, 16.000000)">
                    <mask id="mask-2" fill="white">
                        <use xlink:href="#path-1"></use>
                    </mask>
                    <use id="Mask" fill="#FFF8F4" xlink:href="#path-1"></use>
                    <g mask="url(#mask-2)">
                        <g transform="translate(0.000000, 9.000000)">
                            <rect id="Rectangle-2" fill="#FFE1CE" x="147" y="43" width="22" height="11" rx="2"></rect>
                            <rect id="Rectangle-2-Copy-7" fill="#FFE1CE" x="223" y="290" width="22" height="11" rx="2"></rect>
                            <rect id="Rectangle-2-Copy" fill="#FFE1CE" x="69" y="0" width="22" height="11" rx="2"></rect>
                            <rect id="Rectangle-2-Copy-2" fill="#FFE1CE" x="266" y="236" width="22" height="11" rx="2"></rect>
                            <rect id="Rectangle-2-Copy-3" fill="#FFE1CE" x="0" y="124" width="22" height="11" rx="2"></rect>
                            <rect id="Rectangle-2-Copy-4" fill="#FFFFFF" x="133" y="29" width="22" height="11" rx="2"></rect>
                            <rect id="Rectangle-2-Copy-5" fill="#FFFFFF" x="53" y="139" width="22" height="11" rx="2"></rect>
                            <rect id="Rectangle-2-Copy-8" fill="#FFFFFF" x="283" y="252" width="22" height="11" rx="2"></rect>
                            <rect id="Rectangle-2-Copy-6" fill="#FFFFFF" x="223" y="79" width="22" height="11" rx="2"></rect>
                        </g>
                    </g>
                </g>
                <g id="Group" transform="translate(46.000000, 59.000000)">
                    <mask id="mask-4" fill="white">
                        <use xlink:href="#path-3"></use>
                    </mask>
                    <use id="Oval-Copy" fill="#FFD5BA" xlink:href="#path-3"></use>
                    <path d="M131.071801,195.217153 C107.947912,112.613303 74.7881292,56.2706486 31.5924528,26.1891892" id="Path-3" stroke="#FFEFE5" stroke-width="2" stroke-linecap="round" mask="url(#mask-4)"></path>
                    <path d="M72.5,145 L80.4071509,128.394983 L80.4071509,128.394983 C81.7492723,125.576528 84.1368834,123.392015 87.0632388,122.305083 L100,117.5 L100,72.3449369 L100,72.3449369 C100,63.97259 106.454462,57.0159153 114.803361,56.3897479 L120,56 L115.5,127 L86,144 L72,158 L62.5,152.5 L72.5,145 Z" id="Path-13" fill-opacity="0.0800000057" fill="#000000" mask="url(#mask-4)"></path>
                </g>
                <g id="phone-with-app-tapping-copy-6" transform="translate(23.000000, 16.000000)">
                    <g id="hand">
                        <g>
                            <mask id="mask-6" fill="white">
                                <use xlink:href="#path-5"></use>
                            </mask>
                            <g id="Mask-Copy"></g>
                            <path d="M60.4191752,277.393081 C73.4562968,275.423956 90.1101938,277.953043 110.380866,284.980344 C130.651539,292.007644 140.172768,298.000124 138.944554,302.957783 C136.69605,307.906358 133.335417,313.500164 128.862653,319.739201 C82.3449059,320.177999 63.2840392,300.924089 56.0498047,296.103429 C56.991463,291.895589 58.4479199,285.658806 60.4191752,277.393081 Z" id="bottom-sleeve" fill="#783B12" mask="url(#mask-6)" transform="translate(97.549805, 298.246582) rotate(19.000000) translate(-97.549805, -298.246582) "></path>
                            <path d="M82.8844022,262.041298 C80.5829327,256.052099 79.3214286,249.545986 79.3214286,242.744813 C79.3214286,213.062373 103.349575,189 132.989796,189 C162.630017,189 186.658163,213.062373 186.658163,242.744813 C186.658163,271.807491 163.622946,295.482343 134.838932,296.458323 L114.142491,337.077376 L114.142491,337.077376 C106.380225,352.311681 87.737821,358.368965 72.5035165,350.606699 L72.5035165,350.606699 L72.5035165,350.606699 C57.2692119,342.844433 51.2119278,324.202029 58.9741937,308.967725 L82.8844022,262.041298 Z" id="hand-shadow" fill="#FFD5BA" mask="url(#mask-6)"></path>
                            <path d="M82.5201511,260.271851 C80.180349,254.41617 78.8932683,248.024754 78.8932683,241.332295 C78.8932683,213.162336 101.697051,190.326071 129.826942,190.326071 C157.956833,190.326071 180.760615,213.162336 180.760615,241.332295 C180.760615,269.231502 158.393079,291.89905 130.636553,292.332206 L107.907649,336.940127 L107.907649,336.940127 C100.708243,351.069757 83.4176431,356.687813 69.2880131,349.488407 C55.1583831,342.289001 49.5403266,324.998401 56.7397327,310.868771 L82.5201511,260.271851 Z" id="hand-shape" fill="#FFE1CE" mask="url(#mask-6)"></path>
                            <g id="Group-5" mask="url(#mask-6)">
                                <g transform="translate(-159.000000, 254.000000)">
                                    <mask id="mask-8" fill="white">
                                        <use xlink:href="#path-7"></use>
                                    </mask>
                                    <use id="sleeve" stroke="none" fill="#FF9248" fill-rule="evenodd" transform="translate(163.000000, 301.500000) rotate(19.000000) translate(-163.000000, -301.500000) " xlink:href="#path-7"></use>
                                    <path d="M197.838357,49.4107075 C200.094376,49.282281 202.759056,48.1453785 205.832398,46 C178.008056,172.742136 186.063923,353.565132 230,588.468988 C228.199465,589.946253 229.213618,598.761681 222.606548,593.153197 C157.782511,239.188953 187.482096,93.2829759 197.838357,49.4107075 Z" id="shadow" stroke="none" fill="#FF8736" fill-rule="evenodd" mask="url(#mask-8)" transform="translate(206.000000, 320.500000) rotate(19.000000) translate(-206.000000, -320.500000) "></path>
                                </g>
                            </g>
                        </g>
                    </g>
                    <g id="fingers-behind" transform="translate(180.000000, 126.000000)" fill="#FFD5BA">
                        <rect id="Rectangle-9-Copy" transform="translate(39.885682, 91.731361) rotate(-318.000000) translate(-39.885682, -91.731361) " x="28.946906" y="67.7777355" width="21.877551" height="47.907251" rx="10.9387755"></rect>
                        <rect id="Rectangle-9" transform="translate(39.242869, 62.269415) rotate(-318.000000) translate(-39.242869, -62.269415) " x="28.3040939" y="39.3412413" width="21.877551" height="45.8563473" rx="10.9387755"></rect>
                        <rect id="Rectangle-9-Copy-4" transform="translate(33.639867, 35.718924) rotate(-318.000000) translate(-33.639867, -35.718924) " x="22.7010914" y="-1.91265479" width="21.877551" height="75.2631579" rx="10.9387755"></rect>
                    </g>
                    <g id="phone" transform="translate(127.000000, 103.000000)">
                        <rect id="shadow" fill="#EB772A" x="0" y="0" width="95" height="183" rx="15"></rect>
                        <rect id="phone-shape" fill="#FF8736" x="0" y="0" width="92.9496403" height="180.94382" rx="14"></rect>
                        <rect id="speaker" fill="#EB772A" x="34.8561151" y="10.2808989" width="23.2374101" height="2.74157303" rx="1.37078652"></rect>
                        <rect id="button" fill="#EB772A" x="40.323741" y="163.808989" width="12.3021583" height="12.3370787" rx="6.15107914"></rect>
                        <g id="screen" transform="translate(6.834532, 23.303371)">
                            <mask id="mask-10" fill="white">
                                <use xlink:href="#path-9"></use>
                            </mask>
                            <use id="Mask" fill="#FFFFFF" xlink:href="#path-9"></use>
                            <g id="normal-post-1" mask="url(#mask-10)">
                                <g transform="translate(5.000000, 5.000000)">
                                    <rect id="Rectangle-10" fill="#FFEFE5" x="0" y="0" width="69.7122302" height="19.1910112" rx="3"></rect>
                                    <rect id="Rectangle-11" fill="#FFD5BA" x="4.78417266" y="4.79775281" width="9.56834532" height="9.59550562" rx="4"></rect>
                                    <rect id="Rectangle-11-Copy" fill="#FFD5BA" x="17.0863309" y="4.79775281" width="8.88489209" height="2.05617978" rx="1"></rect>
                                    <rect id="Rectangle-11-Copy-4" fill="#FFD5BA" x="17.0863309" y="8.91011236" width="17.0863309" height="2.05617978" rx="1"></rect>
                                    <rect id="Rectangle-11-Copy-6" fill="#FFD5BA" x="17.0863309" y="12.3370787" width="11.618705" height="2.05617978" rx="1"></rect>
                                    <rect id="Rectangle-11-Copy-2" fill="#FFD5BA" x="28.0215827" y="4.79775281" width="19.1366906" height="2.05617978" rx="1"></rect>
                                    <rect id="Rectangle-11-Copy-5" fill="#FFD5BA" x="36.2230216" y="8.91011236" width="19.1366906" height="2.05617978" rx="1"></rect>
                                    <rect id="Rectangle-11-Copy-7" fill="#FFD5BA" x="30.7553957" y="12.3370787" width="5.4676259" height="2.05617978" rx="1"></rect>
                                    <rect id="Rectangle-11-Copy-8" fill="#FFD5BA" x="38.2733813" y="12.3370787" width="12.3021583" height="2.05617978" rx="1"></rect>
                                    <rect id="Rectangle-11-Copy-3" fill="#FFD5BA" x="57.4100719" y="4.79775281" width="7.51798561" height="2.05617978" rx="1"></rect>
                                </g>
                            </g>
                            <g id="normal-post-1-copy-6" mask="url(#mask-10)">
                                <g transform="translate(5.000000, 29.000000)">
                                    <rect id="Rectangle-10" fill="#FFEFE5" x="0" y="0" width="69.7122302" height="19.1910112" rx="3"></rect>
                                    <rect id="Rectangle-11" fill="#FFD5BA" x="4.78417266" y="4.79775281" width="9.56834532" height="9.59550562" rx="4"></rect>
                                    <rect id="Rectangle-11-Copy" fill="#FFD5BA" x="17.0863309" y="4.79775281" width="8.88489209" height="2.05617978" rx="1"></rect>
                                    <rect id="Rectangle-11-Copy-4" fill="#FFD5BA" x="17.0863309" y="8.91011236" width="17.0863309" height="2.05617978" rx="1"></rect>
                                    <rect id="Rectangle-11-Copy-6" fill="#FFD5BA" x="17.0863309" y="12.3370787" width="11.618705" height="2.05617978" rx="1"></rect>
                                    <rect id="Rectangle-11-Copy-2" fill="#FFD5BA" x="28.0215827" y="4.79775281" width="19.1366906" height="2.05617978" rx="1"></rect>
                                    <rect id="Rectangle-11-Copy-5" fill="#FFD5BA" x="36.2230216" y="8.91011236" width="19.1366906" height="2.05617978" rx="1"></rect>
                                    <rect id="Rectangle-11-Copy-7" fill="#FFD5BA" x="30.7553957" y="12.3370787" width="5.4676259" height="2.05617978" rx="1"></rect>
                                    <rect id="Rectangle-11-Copy-8" fill="#FFD5BA" x="38.2733813" y="12.3370787" width="12.3021583" height="2.05617978" rx="1"></rect>
                                    <rect id="Rectangle-11-Copy-3" fill="#FFD5BA" x="57.4100719" y="4.79775281" width="7.51798561" height="2.05617978" rx="1"></rect>
                                </g>
                            </g>
                            <g id="normal-post-1-copy-7" mask="url(#mask-10)">
                                <g transform="translate(5.000000, 53.000000)">
                                    <rect id="Rectangle-10" fill="#FFEFE5" x="0" y="0" width="69.7122302" height="19.1910112" rx="3"></rect>
                                    <rect id="Rectangle-11" fill="#FFD5BA" x="4.78417266" y="4.79775281" width="9.56834532" height="9.59550562" rx="4"></rect>
                                    <rect id="Rectangle-11-Copy" fill="#FFD5BA" x="17.0863309" y="4.79775281" width="8.88489209" height="2.05617978" rx="1"></rect>
                                    <rect id="Rectangle-11-Copy-4" fill="#FFD5BA" x="17.0863309" y="8.91011236" width="17.0863309" height="2.05617978" rx="1"></rect>
                                    <rect id="Rectangle-11-Copy-6" fill="#FFD5BA" x="17.0863309" y="12.3370787" width="11.618705" height="2.05617978" rx="1"></rect>
                                    <rect id="Rectangle-11-Copy-2" fill="#FFD5BA" x="28.0215827" y="4.79775281" width="19.1366906" height="2.05617978" rx="1"></rect>
                                    <rect id="Rectangle-11-Copy-5" fill="#FFD5BA" x="36.2230216" y="8.91011236" width="19.1366906" height="2.05617978" rx="1"></rect>
                                    <rect id="Rectangle-11-Copy-7" fill="#FFD5BA" x="30.7553957" y="12.3370787" width="5.4676259" height="2.05617978" rx="1"></rect>
                                    <rect id="Rectangle-11-Copy-8" fill="#FFD5BA" x="38.2733813" y="12.3370787" width="12.3021583" height="2.05617978" rx="1"></rect>
                                    <rect id="Rectangle-11-Copy-3" fill="#FFD5BA" x="57.4100719" y="4.79775281" width="7.51798561" height="2.05617978" rx="1"></rect>
                                </g>
                            </g>
                            <g id="normal-post-1-copy-8" mask="url(#mask-10)">
                                <g transform="translate(5.000000, 77.000000)">
                                    <rect id="Rectangle-10" fill="#FFEFE5" x="0" y="0" width="69.7122302" height="19.1910112" rx="3"></rect>
                                    <rect id="Rectangle-11" fill="#FFD5BA" x="4.78417266" y="4.79775281" width="9.56834532" height="9.59550562" rx="4"></rect>
                                    <rect id="Rectangle-11-Copy" fill="#FFD5BA" x="17.0863309" y="4.79775281" width="8.88489209" height="2.05617978" rx="1"></rect>
                                    <rect id="Rectangle-11-Copy-4" fill="#FFD5BA" x="17.0863309" y="8.91011236" width="17.0863309" height="2.05617978" rx="1"></rect>
                                    <rect id="Rectangle-11-Copy-6" fill="#FFD5BA" x="17.0863309" y="12.3370787" width="11.618705" height="2.05617978" rx="1"></rect>
                                    <rect id="Rectangle-11-Copy-2" fill="#FFD5BA" x="28.0215827" y="4.79775281" width="19.1366906" height="2.05617978" rx="1"></rect>
                                    <rect id="Rectangle-11-Copy-5" fill="#FFD5BA" x="36.2230216" y="8.91011236" width="19.1366906" height="2.05617978" rx="1"></rect>
                                    <rect id="Rectangle-11-Copy-7" fill="#FFD5BA" x="30.7553957" y="12.3370787" width="5.4676259" height="2.05617978" rx="1"></rect>
                                    <rect id="Rectangle-11-Copy-8" fill="#FFD5BA" x="38.2733813" y="12.3370787" width="12.3021583" height="2.05617978" rx="1"></rect>
                                    <rect id="Rectangle-11-Copy-3" fill="#FFD5BA" x="57.4100719" y="4.79775281" width="7.51798561" height="2.05617978" rx="1"></rect>
                                </g>
                            </g>
                            <g id="normal-post-1-copy-9" mask="url(#mask-10)">
                                <g transform="translate(5.000000, 101.000000)">
                                    <rect id="Rectangle-10" fill="#FFEFE5" x="0" y="0" width="69.7122302" height="19.1910112" rx="3"></rect>
                                    <rect id="Rectangle-11" fill="#FFD5BA" x="4.78417266" y="4.79775281" width="9.56834532" height="9.59550562" rx="4"></rect>
                                    <rect id="Rectangle-11-Copy" fill="#FFD5BA" x="17.0863309" y="4.79775281" width="8.88489209" height="2.05617978" rx="1"></rect>
                                    <rect id="Rectangle-11-Copy-4" fill="#FFD5BA" x="17.0863309" y="8.91011236" width="17.0863309" height="2.05617978" rx="1"></rect>
                                    <rect id="Rectangle-11-Copy-6" fill="#FFD5BA" x="17.0863309" y="12.3370787" width="11.618705" height="2.05617978" rx="1"></rect>
                                    <rect id="Rectangle-11-Copy-2" fill="#FFD5BA" x="28.0215827" y="4.79775281" width="19.1366906" height="2.05617978" rx="1"></rect>
                                    <rect id="Rectangle-11-Copy-5" fill="#FFD5BA" x="36.2230216" y="8.91011236" width="19.1366906" height="2.05617978" rx="1"></rect>
                                    <rect id="Rectangle-11-Copy-7" fill="#FFD5BA" x="30.7553957" y="12.3370787" width="5.4676259" height="2.05617978" rx="1"></rect>
                                    <rect id="Rectangle-11-Copy-8" fill="#FFD5BA" x="38.2733813" y="12.3370787" width="12.3021583" height="2.05617978" rx="1"></rect>
                                    <rect id="Rectangle-11-Copy-3" fill="#FFD5BA" x="57.4100719" y="4.79775281" width="7.51798561" height="2.05617978" rx="1"></rect>
                                </g>
                            </g>
                            <g id="normal-post-1-copy-10" mask="url(#mask-10)">
                                <g transform="translate(5.000000, 125.000000)">
                                    <rect id="Rectangle-10" fill="#FFEFE5" x="0" y="0" width="69.7122302" height="19.1910112" rx="3"></rect>
                                    <rect id="Rectangle-11" fill="#FFD5BA" x="4.78417266" y="4.79775281" width="9.56834532" height="9.59550562" rx="4"></rect>
                                    <rect id="Rectangle-11-Copy" fill="#FFD5BA" x="17.0863309" y="4.79775281" width="8.88489209" height="2.05617978" rx="1"></rect>
                                    <rect id="Rectangle-11-Copy-4" fill="#FFD5BA" x="17.0863309" y="8.91011236" width="17.0863309" height="2.05617978" rx="1"></rect>
                                    <rect id="Rectangle-11-Copy-6" fill="#FFD5BA" x="17.0863309" y="12.3370787" width="11.618705" height="2.05617978" rx="1"></rect>
                                    <rect id="Rectangle-11-Copy-2" fill="#FFD5BA" x="28.0215827" y="4.79775281" width="19.1366906" height="2.05617978" rx="1"></rect>
                                    <rect id="Rectangle-11-Copy-5" fill="#FFD5BA" x="36.2230216" y="8.91011236" width="19.1366906" height="2.05617978" rx="1"></rect>
                                    <rect id="Rectangle-11-Copy-7" fill="#FFD5BA" x="30.7553957" y="12.3370787" width="5.4676259" height="2.05617978" rx="1"></rect>
                                    <rect id="Rectangle-11-Copy-8" fill="#FFD5BA" x="38.2733813" y="12.3370787" width="12.3021583" height="2.05617978" rx="1"></rect>
                                    <rect id="Rectangle-11-Copy-3" fill="#FFD5BA" x="57.4100719" y="4.79775281" width="7.51798561" height="2.05617978" rx="1"></rect>
                                </g>
                            </g>
                        </g>
                    </g>
                    <g id="fingers-front" transform="translate(201.000000, 163.000000)" fill="#FFE1CE">
                        <rect id="pinky" transform="translate(23.375000, 48.542090) rotate(-310.000000) translate(-23.375000, -48.542090) " x="12.375" y="31.5959596" width="22" height="33.8922617" rx="11"></rect>
                        <rect id="ring-finger" transform="translate(21.415637, 20.784059) rotate(-310.000000) translate(-21.415637, -20.784059) " x="10.4156373" y="2.3808598" width="22" height="36.8063988" rx="11"></rect>
                    </g>
                    <g id="thumb" transform="translate(80.000000, 158.000000)">
                        <path d="M47.897878,30.8264918 L45.198339,50.0347099 C55.2531874,55.1415546 62.0152861,65.446622 62.0152861,77.6645801 C62.0152861,95.1629659 46.50334,108.737714 30.5966131,108.737714 C14.6898861,108.737714 3.93357935,96.8499947 3.93357935,79.3516089 C3.93357935,61.8532231 13.0480599,46.5914462 30.5966131,46.5914462 C32.1709084,46.5914462 33.7155996,46.7006962 35.2233283,46.9122282 L36.8371477,35.429307 L35.0338787,36.1797198 L33.0520615,10.3528193 L60.782,1.32984685 L60.782,1.32984685 C66.6090965,-0.566216862 72.9363931,2.17173419 75.5433135,7.71736997 L75.5433135,7.71736997 L75.5433135,7.71736997 C77.9520719,12.8414607 75.7508601,18.9480415 70.6267694,21.3567999 C70.4873214,21.4223523 70.3464133,21.4847525 70.2041524,21.543953 L47.897878,30.8264918 Z" id="shadow" fill="#FFD5BA"></path>
                        <mask id="mask-12" fill="white">
                            <use xlink:href="#path-11"></use>
                        </mask>
                        <use id="Mask" fill="#FFE1CE" xlink:href="#path-11"></use>
                    </g>
                </g>
                <g id="Group-7" transform="translate(98.000000, 37.000000)">
                    <g id="Group-6" transform="translate(0.000000, 54.000000)">
                        <circle id="Oval-6" fill="#FF8736" cx="14" cy="14" r="14"></circle>
                        <path d="M13.583837,18.5104692 L10.910959,19.7337894 L10.910959,19.7337894 C10.408772,19.9636299 9.81534646,19.7428493 9.585506,19.2406623 C9.50953298,19.074666 9.48044943,18.8910397 9.50140839,18.7096909 L9.83889028,15.7896061 L9.83889028,15.7896061 C9.87225627,15.5009047 9.77837555,15.2119695 9.58168742,14.9980171 L7.59227607,12.8339858 L7.59227607,12.8339858 C7.21850048,12.4274022 7.24509665,11.794796 7.65168028,11.4210204 C7.78607519,11.2974701 7.95172685,11.2130664 8.1306765,11.1769597 L11.0121298,10.5955682 L11.0121298,10.5955682 C11.2970119,10.5380875 11.5427948,10.3595157 11.6854956,10.1063393 L13.1288498,7.5455742 L13.1288498,7.5455742 C13.4000308,7.06445124 14.0098937,6.89425965 14.4910166,7.16544065 C14.6500503,7.25507866 14.7815122,7.38654056 14.8711502,7.5455742 L16.3145044,10.1063393 L16.3145044,10.1063393 C16.4572052,10.3595157 16.7029881,10.5380875 16.9878702,10.5955682 L19.8693235,11.1769597 L19.8693235,11.1769597 C20.4106982,11.286193 20.761018,11.8136149 20.6517847,12.3549896 C20.615678,12.5339392 20.5312742,12.6995909 20.4077239,12.8339858 L18.4183126,14.9980171 L18.4183126,14.9980171 C18.2216245,15.2119695 18.1277437,15.5009047 18.1611097,15.7896061 L18.4985916,18.7096909 L18.4985916,18.7096909 C18.5619985,19.2583238 18.1686452,19.7544801 17.6200124,19.817887 C17.4386636,19.838846 17.2550373,19.8097624 17.089041,19.7337894 L14.416163,18.5104692 L14.416163,18.5104692 C14.1519022,18.3895226 13.8480978,18.3895226 13.583837,18.5104692 Z" id="Star" fill="#FFF5EF"></path>
                    </g>
                    <g id="Group-6-Copy-2" transform="translate(84.000000, 0.000000)">
                        <circle id="Oval-6" fill="#FF8736" cx="14" cy="14" r="14"></circle>
                        <path d="M13.583837,18.5104692 L10.910959,19.7337894 L10.910959,19.7337894 C10.408772,19.9636299 9.81534646,19.7428493 9.585506,19.2406623 C9.50953298,19.074666 9.48044943,18.8910397 9.50140839,18.7096909 L9.83889028,15.7896061 L9.83889028,15.7896061 C9.87225627,15.5009047 9.77837555,15.2119695 9.58168742,14.9980171 L7.59227607,12.8339858 L7.59227607,12.8339858 C7.21850048,12.4274022 7.24509665,11.794796 7.65168028,11.4210204 C7.78607519,11.2974701 7.95172685,11.2130664 8.1306765,11.1769597 L11.0121298,10.5955682 L11.0121298,10.5955682 C11.2970119,10.5380875 11.5427948,10.3595157 11.6854956,10.1063393 L13.1288498,7.5455742 L13.1288498,7.5455742 C13.4000308,7.06445124 14.0098937,6.89425965 14.4910166,7.16544065 C14.6500503,7.25507866 14.7815122,7.38654056 14.8711502,7.5455742 L16.3145044,10.1063393 L16.3145044,10.1063393 C16.4572052,10.3595157 16.7029881,10.5380875 16.9878702,10.5955682 L19.8693235,11.1769597 L19.8693235,11.1769597 C20.4106982,11.286193 20.761018,11.8136149 20.6517847,12.3549896 C20.615678,12.5339392 20.5312742,12.6995909 20.4077239,12.8339858 L18.4183126,14.9980171 L18.4183126,14.9980171 C18.2216245,15.2119695 18.1277437,15.5009047 18.1611097,15.7896061 L18.4985916,18.7096909 L18.4985916,18.7096909 C18.5619985,19.2583238 18.1686452,19.7544801 17.6200124,19.817887 C17.4386636,19.838846 17.2550373,19.8097624 17.089041,19.7337894 L14.416163,18.5104692 L14.416163,18.5104692 C14.1519022,18.3895226 13.8480978,18.3895226 13.583837,18.5104692 Z" id="Star" fill="#FFF5EF"></path>
                    </g>
                    <g id="Group-6-Copy-3" transform="translate(135.000000, 16.000000)">
                        <circle id="Oval-6" fill="#FF8736" cx="14" cy="14" r="14"></circle>
                        <path d="M12.6525289,20.0597511 C13.4375073,20.772935 14.6525095,20.7505407 15.410482,19.9925682 L20.0066761,15.3963741 C21.3735111,14.0295391 21.3735111,11.8134617 20.0066761,10.4466267 L20.0066761,10.4466267 L20.0066761,10.4466267 C18.6398411,9.07979164 16.4237637,9.07979164 15.0569286,10.4466267 L15.0569286,10.4466267 L13.9957401,11.5078152 L12.9248249,10.4368999 C11.5579899,9.07006493 9.34191246,9.07006493 7.97507744,10.4368999 L7.97507744,10.4368999 L7.97507744,10.4368999 C6.60824242,11.803735 6.60824242,14.0198124 7.97507744,15.3866474 L7.97507744,15.3866474 L12.5712715,19.9828415 C12.5978098,20.0093797 12.6249082,20.0350163 12.6525289,20.0597511 Z" id="Combined-Shape" fill="#FFF5EF"></path>
                    </g>
                    <g id="Group-6-Copy-4" transform="translate(33.000000, 16.000000)">
                        <circle id="Oval-6" fill="#FF8736" cx="14" cy="14" r="14"></circle>
                        <path d="M15.8644951,14 L18.9280268,8.48564293 C19.010559,8.33708493 19.0538695,8.16994425 19.0538695,8 C19.0538695,7.44771525 18.6061542,7 18.0538695,7 L18.0538695,7 L12.5555556,7 L12.5555556,7 C12.0868569,7 11.6810435,7.32553199 11.5793685,7.78306954 L11.5793685,7.78306954 L10.0238129,14.7830695 C10.0079852,14.8542944 10,14.9270377 10,15 C10,15.5522847 10.4477153,16 11,16 L13.2096606,16 L11.6358236,21.7891091 C11.5569532,22.0792215 11.6473934,22.3890596 11.8699465,22.5911881 C12.1970135,22.8882385 12.7029606,22.8639054 13.0000111,22.5368384 L13.0000111,22.5368384 L19.2345389,15.6723219 C19.4016798,15.4882917 19.4942799,15.2486025 19.4942799,15 C19.4942799,14.4477153 19.0465647,14 18.4942799,14 L18.4942799,14 L15.8644951,14 Z" id="Combined-Shape" fill="#FFF5EF"></path>
                    </g>
                    <g id="Group-6-Copy" transform="translate(168.000000, 54.000000)">
                        <circle id="Oval-6" fill="#FF8736" cx="14" cy="14" r="14"></circle>
                        <path d="M15.8644951,14 L18.9280268,8.48564293 C19.010559,8.33708493 19.0538695,8.16994425 19.0538695,8 C19.0538695,7.44771525 18.6061542,7 18.0538695,7 L18.0538695,7 L12.5555556,7 L12.5555556,7 C12.0868569,7 11.6810435,7.32553199 11.5793685,7.78306954 L11.5793685,7.78306954 L10.0238129,14.7830695 C10.0079852,14.8542944 10,14.9270377 10,15 C10,15.5522847 10.4477153,16 11,16 L13.2096606,16 L11.6358236,21.7891091 C11.5569532,22.0792215 11.6473934,22.3890596 11.8699465,22.5911881 C12.1970135,22.8882385 12.7029606,22.8639054 13.0000111,22.5368384 L13.0000111,22.5368384 L19.2345389,15.6723219 C19.4016798,15.4882917 19.4942799,15.2486025 19.4942799,15 C19.4942799,14.4477153 19.0465647,14 18.4942799,14 L18.4942799,14 L15.8644951,14 Z" id="Combined-Shape" fill="#FFF5EF"></path>
                    </g>
                </g>
            </g>
        </g>
    </g>
</svg>