<?xml version="1.0" encoding="UTF-8"?>
<svg width="360px" height="360px" viewBox="0 0 360 360" version="1.1" xmlns="http://www.w3.org/2000/svg" xmlns:xlink="http://www.w3.org/1999/xlink">
    <!-- Generator: Sketch 46.2 (44496) - http://www.bohemiancoding.com/sketch -->
    <title>illustration-problem copy</title>
    <desc>Created with Sketch.</desc>
    <defs>
        <path d="M180.550781,327.916016 C77.1152344,328.445312 17.9883499,332.131411 4.453125,295.005859 C-9.08209987,257.880308 47.5736549,231.029371 39.8671875,205.921875 C30.6639556,175.937955 7.41198863,150.070759 1.68164063,115.185547 C-8.84710212,51.0886678 99.4346288,-21.4908132 182.777344,7.58984375 C229.992187,24.0644531 194.98654,84.3466791 204.322266,126.837891 C211.777875,160.771821 251.015001,169.930201 274.841797,190.892578 C328.503906,238.103516 283.986328,327.386719 180.550781,327.916016 Z M270.96963,85.3005117 C281.076172,98.3173828 301.041432,104.886676 313.485352,121.638672 C328.327145,141.618684 331.539621,173.848416 304.828125,183.304688 C284.780323,190.401911 268.689453,170.467773 245.618606,158.258896 C222.547758,146.050018 217.08576,128.293969 215.660221,117.17823 C210.159101,74.2828625 247.762365,55.4103691 270.96963,85.3005117 Z" id="path-1"></path>
        <path d="M2,15 L14,15 L14,15 C15.1045695,15 16,15.8954305 16,17 L16,35 L16,35 C16,36.1045695 15.1045695,37 14,37 L2,37 L2,37 C0.8954305,37 1.3527075e-16,36.1045695 0,35 L0,17 L0,17 C-1.3527075e-16,15.8954305 0.8954305,15 2,15 Z" id="path-3"></path>
        <path d="M44.8792419,113.384486 C53.1483738,119.947616 71.0155714,120.872295 81.201002,119.386781 C93.1591285,117.642725 107.028668,105.730723 106.999955,94.6063046 C106.946786,74.0065725 82.5739529,78.0573763 83.1434558,53.4032641 C83.7129587,28.7491518 51.3611773,47.9100022 51.3978051,25.2777155 C51.4344329,2.64542877 22.0152369,-6.25847165 8.00452057,4.6231461 C-6.00619575,15.5047639 -0.597441695,35.488173 16.2599494,42.1544752 C33.1173405,48.8207774 14.514338,68.5777612 35.676217,77.3779476 C56.838096,86.1781341 26.9017993,99.1159638 44.8792419,113.384486 Z" id="path-5"></path>
        <path d="M2.30601937,0 L40.6939806,0 L40.6939806,8.8817842e-16 C41.7985501,6.85272294e-16 42.6939806,0.8954305 42.6939806,2 C42.6939806,2.09463774 42.6872634,2.18915613 42.6738796,2.28284271 L37.2453082,40.2828427 L37.2453082,40.2828427 C37.1045514,41.2681402 36.2607099,42 35.2654092,42 L7.7345908,42 L7.7345908,42 C6.73929005,42 5.8954486,41.2681402 5.75469182,40.2828427 L0.326120387,2.28284271 L0.326120387,2.28284271 C0.169910671,1.1893747 0.929708645,0.176310729 2.02317666,0.0201010127 C2.11686324,0.00671721544 2.21138164,-6.48749144e-16 2.30601937,-6.66133815e-16 Z" id="path-7"></path>
        <path d="M62.8280788,40.6110574 C63.5917535,37.8712682 64,34.9833097 64,32 C64,14.326888 49.673112,0 32,0 C14.326888,0 0,14.326888 0,32 C0,49.673112 14.326888,64 32,64 C40.6846179,64 48.5612004,60.5403893 54.3267558,54.9241595 L65.1570847,53.2746606 L65.1570847,53.2746606 C66.2490618,53.1083485 66.9994616,52.0883035 66.8331494,50.9963264 C66.8109116,50.8503164 66.7725688,50.707219 66.7188223,50.5696517 L62.8280788,40.6110574 Z" id="path-9"></path>
        <path d="M21.1377531,18.5416829 C22.1569374,21.1254015 22.007986,24.4513509 20.6908987,28.5195313 C18.7152678,34.6218018 3.00048186,27.7343669 0.853637695,37.4195231 C-1.29320647,47.1046794 23.5062163,48.723904 30.150532,48.0621094 C34.5800757,47.620913 42.222339,47.826143 53.0773219,48.6777995 C59.7677259,49.4125868 63.0608488,47.3657362 62.9566907,42.5372477 C62.8525326,37.7087592 56.2201442,33.4071696 43.0595253,29.6324788 C40.867618,24.5147542 40.2090743,20.1393934 41.0838944,16.5063965 C42.036968,13.4933431 43.4435071,9.83309733 45.3035118,5.52565918 L45.3035118,0.185823568 L41.0838944,0.619278971 L35.008455,8.49285482 L26.8594328,18.5416829 L22.9972181,16.5063965 L21.1377531,18.5416829 Z" id="path-11"></path>
        <path d="M14.236084,2.62304688 C38.7376816,11.7273663 25.6372064,5.37903899 41.0473633,1.0871582 C58.3447436,-3.73033294 50.3592296,21.1932058 38.8759766,23.9274902 C17.6632164,28.9784737 -18.8802321,-1.66008562 13.5517578,1.39599609 L14.236084,2.62304688 Z" id="path-13"></path>
        <path d="M2.16845082,5.22969092 C-1.119087,22.0641726 -0.425008543,30.6905323 4.25068619,31.1087698 C7.56522462,31.9078185 14.4387602,28.8921445 17.209268,28.3237588 C19.0562732,27.9448349 20.7711564,25.3626975 22.3539177,20.5773464 L27.2227137,8.30596759 L15.1795257,0 L3.87074332,0.856255884 L2.16845082,5.22969092 Z" id="path-15"></path>
        <path d="M63.2177067,39.0639934 C63.7297531,36.7914134 64,34.4272665 64,32 C64,14.326888 49.673112,0 32,0 C14.326888,0 5.54223334e-13,14.326888 5.54223334e-13,32 C5.54223334e-13,49.673112 14.326888,64 32,64 C41.0465243,64 49.216265,60.2460428 55.0364525,54.2108978 L65.8986672,52.5565426 C66.9906443,52.3902305 67.7410441,51.3701855 67.5747319,50.2782084 C67.5524941,50.1321984 67.5141512,49.989101 67.4604048,49.8515337 L63.3601092,39.3565782 L63.3601092,39.3565782 C63.3199217,39.2537158 63.2721581,39.1560578 63.2177067,39.0639934 Z" id="path-17"></path>
        <path d="M21.1377531,18.5416829 C22.1569374,21.1254015 22.007986,24.4513509 20.6908987,28.5195313 C18.7152678,34.6218018 3.00048186,27.7343669 0.853637695,37.4195231 C-1.29320647,47.1046794 23.5062163,48.723904 30.150532,48.0621094 C34.5800757,47.620913 42.222339,47.826143 53.0773219,48.6777995 C59.7677259,49.4125868 63.0608488,47.3657362 62.9566907,42.5372477 C62.8525326,37.7087592 56.2201442,33.4071696 43.0595253,29.6324788 C40.867618,24.5147542 40.2090743,20.1393934 41.0838944,16.5063965 C42.036968,13.4933431 43.4435071,9.83309733 45.3035118,5.52565918 L45.3035118,0.185823568 L41.0838944,0.619278971 L35.008455,8.49285482 L26.8594328,18.5416829 L22.9972181,16.5063965 L21.1377531,18.5416829 Z" id="path-19"></path>
        <path d="M14.236084,2.62304688 C38.7376816,11.7273663 25.6372064,5.37903899 41.0473633,1.0871582 C58.3447436,-3.73033294 50.3592296,21.1932058 38.8759766,23.9274902 C17.6632164,28.9784737 -18.8802321,-1.66008562 13.5517578,1.39599609 L14.236084,2.62304688 Z" id="path-21"></path>
        <path d="M2.67452798,5.02457242 C-0.443777133,21.4987683 0.536946615,30.1442233 5.61669922,30.9609375 C8.93123765,31.7599862 15.6708984,29.6426045 18.4414062,29.0742187 C20.2884115,28.6952949 21.9259153,25.8630041 23.3539177,20.5773464 L28.2227137,8.30596759 L16.1795257,0 L4.75305509,1.38848712 L2.67452798,5.02457242 Z" id="path-23"></path>
    </defs>
    <g id="ðŸ“-Illustrations" stroke="none" stroke-width="1" fill="none" fill-rule="evenodd">
        <g id="Artboard-2-Copy" transform="translate(-119.000000, -1127.000000)">
            <g id="illustration-problem-copy" transform="translate(119.000000, 1127.000000)">
                <rect id="area" fill="#FFFFFF" x="0" y="0" width="360" height="360"></rect>
                <g id="mask" transform="translate(20.000000, 16.000000)">
                    <mask id="mask-2" fill="white">
                        <use xlink:href="#path-1"></use>
                    </mask>
                    <use id="blob" fill="#FFF8F4" xlink:href="#path-1"></use>
                    <g id="brick-wall" mask="url(#mask-2)">
                        <g transform="translate(30.000000, 37.000000)">
                            <rect id="Rectangle-2" fill="#FFE1CE" x="124" y="20" width="22" height="11" rx="2"></rect>
                            <rect id="Rectangle-2-Copy-7" fill="#FFE1CE" x="160" y="267" width="22" height="11" rx="2"></rect>
                            <rect id="Rectangle-2-Copy-9" fill="#FFE1CE" x="11" y="213" width="22" height="11" rx="2"></rect>
                            <rect id="Rectangle-2-Copy-2" fill="#EBEBEB" x="203" y="213" width="22" height="11" rx="2"></rect>
                            <rect id="Rectangle-2-Copy-3" fill="#EBEBEB" x="31" y="158" width="22" height="11" rx="2"></rect>
                            <rect id="Rectangle-2-Copy-12" fill="#FFE1CE" x="99" y="103" width="22" height="11" rx="2"></rect>
                            <rect id="Rectangle-2-Copy-4" fill="#FFFFFF" x="110" y="6" width="22" height="11" rx="2"></rect>
                            <rect id="Rectangle-2-Copy-13" fill="#FFFFFF" x="113" y="87" width="22" height="11" rx="2"></rect>
                            <rect id="Rectangle-2-Copy-5" fill="#FFFFFF" x="42" y="108" width="22" height="11" rx="2"></rect>
                            <rect id="Rectangle-2-Copy-8" fill="#FFFFFF" x="220" y="229" width="22" height="11" rx="2"></rect>
                            <rect id="Rectangle-2-Copy-10" fill="#FFFFFF" x="160" y="158" width="22" height="11" rx="2"></rect>
                            <rect id="Rectangle-2-Copy-11" fill="#FFFFFF" x="0" y="0" width="22" height="11" rx="2"></rect>
                            <rect id="Rectangle-2-Copy-6" fill="#FFFFFF" x="257" y="72" width="22" height="11" rx="2"></rect>
                            <rect id="Rectangle-2-Copy" fill="#FFE1CE" x="201" y="92" width="22" height="11" rx="2"></rect>
                        </g>
                    </g>
                    <g id="window" mask="url(#mask-2)">
                        <g transform="translate(-31.000000, 75.000000)">
                            <path d="M30,0 L165,0 L165,0 C166.104569,-2.02906125e-16 167,0.8954305 167,2 L167,125 L30,125 L30,125 C28.8954305,125 28,124.104569 28,123 L28,2 L28,2 C28,0.8954305 28.8954305,2.02906125e-16 30,0 Z" id="window-" fill="#FFFFFF"></path>
                            <path d="M0.20543531,49.519106 C4.4174325,41.839702 11.8339887,38 22.4551038,38 C39.3799085,38 39.6230726,46 51.4551038,46 C63.2871351,46 69.1523694,26 94.4551038,26 C110.951661,26 119.922887,33.969902 121.368782,49.9097059 L121.368737,49.9097099 C121.418628,50.4597119 121.013208,50.9460208 120.463206,50.9959113 C120.433171,50.9986357 120.403029,51 120.372871,51 L1.08221167,51 L1.08221167,50.9999979 C0.529928062,50.9999979 0.0822137409,50.5522836 0.0822137409,50 C0.0822137409,49.8318929 0.124593443,49.6664986 0.20543531,49.519106 Z" id="cloud" fill="#FFEFE5" transform="translate(60.727552, 38.500000) scale(-1, 1) translate(-60.727552, -38.500000) "></path>
                            <rect id="window-bar" fill="#FFD5BA" x="39" y="125" width="135" height="15"></rect>
                        </g>
                    </g>
                </g>
                <g id="computer" transform="translate(109.000000, 289.000000)">
                    <path d="M6.10809941,0 L91.8919006,0 L91.8919006,8.8817842e-16 C95.2056091,-8.55003309e-15 97.8919006,2.6862915 97.8919006,6 C97.8919006,6.03571073 97.8915818,6.07142074 97.8909442,6.10712578 L97.0350766,54.0357086 L97.0350766,54.0357086 C97.0156039,55.1261841 96.1260448,56 95.0353954,56 L2.96460457,56 L2.96460457,56 C1.87395524,56 0.984396144,55.1261841 0.964923368,54.0357086 L0.109055817,6.10712578 L0.109055817,6.10712578 C0.0498918837,2.79394549 2.68779334,0.0601203377 6.00097364,0.000956403927 C6.03667867,0.000318814014 6.07238869,8.94738374e-16 6.10809941,8.8817842e-16 Z" id="Rectangle-20" fill="#FF9248"></path>
                    <path d="M49,36 C52.3137085,36 51.3103027,33.3137085 51.3103027,30 C51.3103027,26.6862915 52.3137085,24 49,24 C45.6862915,24 43,26.6862915 43,30 C43,33.3137085 45.6862915,36 49,36 Z" id="Combined-Shape" fill="#FFAA71"></path>
                </g>
                <g id="pencils" transform="translate(73.000000, 308.000000)">
                    <polygon id="Rectangle-22" fill="#FFAC77" transform="translate(4.942456, 16.002608) rotate(-7.000000) translate(-4.942456, -16.002608) " points="3.94245565 3.00260777 4.94245565 0.00260776967 5.94245565 3.00260777 5.94245565 32.0026078 3.94245565 32.0026078"></polygon>
                    <polygon id="Rectangle-22-Copy-2" fill="#FFAC77" transform="translate(7.753491, 19.220869) rotate(-3.000000) translate(-7.753491, -19.220869) " points="6.7534908 6.22086949 7.7534908 3.22086949 8.7534908 6.22086949 8.7534908 35.2208695 6.7534908 35.2208695"></polygon>
                    <polygon id="Rectangle-22-Copy" fill="#FFAC77" transform="translate(9.852124, 20.103194) rotate(20.000000) translate(-9.852124, -20.103194) " points="8.85212361 7.10319371 9.85212361 4.10319371 10.8521236 7.10319371 10.8521236 36.1031937 8.85212361 36.1031937"></polygon>
                    <mask id="mask-4" fill="white">
                        <use xlink:href="#path-3"></use>
                    </mask>
                    <use id="Rectangle-21" fill="#FFC7A4" xlink:href="#path-3"></use>
                    <path d="M-2,14 L20,14 L20,39 L-2,39 L-2,14 Z M4,15 L4,15 C2.8954305,15 2,15.8954305 2,17 L2,17 L2,35 C2,36.1045695 2.8954305,37 4,37 L16,37 C17.1045695,37 18,36.1045695 18,35 L18,17 C18,15.8954305 17.1045695,15 16,15 L4,15 Z" id="Combined-Shape" fill-opacity="0.0800000057" fill="#000000" mask="url(#mask-4)"></path>
                </g>
                <g id="plant" transform="translate(197.000000, 183.000000)">
                    <g id="Group" transform="translate(95.875219, 60.291221) scale(-1, 1) translate(-95.875219, -60.291221) translate(42.375219, 0.291221)">
                        <mask id="mask-6" fill="white">
                            <use xlink:href="#path-5"></use>
                        </mask>
                        <use id="Oval-Copy" fill="#FFC7A4" xlink:href="#path-5"></use>
                        <path d="M79.2373047,125.633789 C65.7552545,76.7638578 43.1846165,33.7967354 18,16" id="Path-3" stroke="#FFEFE5" stroke-width="2" stroke-linecap="round" mask="url(#mask-6)"></path>
                        <path d="M69.4858132,131.708779 C82.1439175,127.29374 78.6165676,128.561949 85.351814,100.16816 C92.0870603,71.774371 61.7253901,82.758372 65.4858132,59.2087792 C66.3196547,53.9868596 65.6494912,49.6915836 64.1997279,46.6340779 C62.4858132,50.7087792 63.5358621,53.7087792 63.0358621,57.7087792 C62.361194,63.1061235 60.9858132,65.2087792 60.1857644,66.6088036 C58.9969451,86.4714827 64.8707998,133.318457 69.4858132,131.708779 Z" id="Oval-Copy" fill-opacity="0.0800000057" fill="#000000" mask="url(#mask-6)" transform="translate(73.180516, 89.191657) scale(-1, 1) translate(-73.180516, -89.191657) "></path>
                    </g>
                    <g id="Group-Copy" transform="translate(47.985352, 82.633789) rotate(11.000000) translate(-47.985352, -82.633789) translate(8.985352, 32.633789)">
                        <path d="M67.1230469,87.0986328 C79.7811511,82.6835937 76.4392862,84.9929794 77.0087891,60.3388672 C77.578292,35.6847549 50.3823175,49.3207633 50.4189453,26.6884766 C50.4555731,4.05618986 22.0986069,-5.90603181 8.08789062,4.97558594 C-5.9228257,15.8572037 2.23831204,34.7543562 19.0957031,41.4206584 C35.9530942,48.0869606 18.2129558,66.817001 39.3748348,75.6171875 C60.5367139,84.417374 57.3914268,90.4929391 67.1230469,87.0986328 Z" id="Oval-Copy" fill="#FFE5D4"></path>
                        <path d="M72.1025391,99.1005859 C56.2714844,51.2490234 41.3066406,36.4003906 18.5556641,16.1806641" id="Path-3" stroke="#FFF5EF" stroke-width="2" stroke-linecap="round"></path>
                    </g>
                    <g id="Group-21" transform="translate(52.000000, 120.000000)">
                        <mask id="mask-8" fill="white">
                            <use xlink:href="#path-7"></use>
                        </mask>
                        <use id="Rectangle-17" fill="#FFAA71" xlink:href="#path-7"></use>
                        <path d="M5,42 L5,47 L45,47 L45,-2 L5,-2 L5,1.77635684e-15 L37.6939806,0 L37.6939806,8.8817842e-16 C38.7985501,8.8817842e-16 39.6939806,0.8954305 39.6939806,2 C39.6939806,2.09463774 39.6872634,2.18915613 39.6738796,2.28284271 L34.2453082,40.2828427 L34.2453082,40.2828427 C34.1045514,41.2681402 33.2607099,42 32.2654092,42 L5,42 Z" id="Combined-Shape" fill-opacity="0.0800000057" fill="#000000" mask="url(#mask-8)"></path>
                    </g>
                </g>
                <g id="Group-12-Copy-2" transform="translate(31.000000, 200.000000)">
                    <mask id="mask-10" fill="white">
                        <use xlink:href="#path-9"></use>
                    </mask>
                    <use id="Combined-Shape" fill="#FFEFE5" xlink:href="#path-9"></use>
                    <g id="Group-12" mask="url(#mask-10)">
                        <g transform="translate(29.439065, 37.996273) scale(-1, 1) rotate(-7.000000) translate(-29.439065, -37.996273) translate(-2.060935, 4.996273)">
                            <path d="M41.7169067,14.7528306 C43.1729521,5.05120558 32.4130312,6.60512605 30.4390747,6.88954936 C28.4651181,7.17397267 18.1952177,9.15163344 14.4415161,19.60244 C11.1311319,26.716747 13.7936738,29.1939418 9.64024653,35.4315415 C5.48681926,41.6691413 5.62041766,50.045002 6.19591059,52.8656236 C6.77140352,55.6862452 7.08377669,61.7280828 16.4169625,61.3474904 C25.7501483,60.966898 34.1791695,57.2239482 32.0015747,46.6834947 C31.8220081,41.3380866 27.5014816,32.7598527 29.3951293,26.739647 C29.5195062,26.2405779 40.2608613,24.4544556 41.7169067,14.7528306 Z" id="Path-3-Copy" fill="#783B12"></path>
                            <g id="Path-8" stroke-width="1" fill="none" transform="translate(-0.000000, 16.000000)">
                                <mask id="mask-12" fill="white">
                                    <use xlink:href="#path-11"></use>
                                </mask>
                                <use id="Mask" fill="#FFE1CE" xlink:href="#path-11"></use>
                                <path d="M20.7062796,21.4024089 C24.762509,24.4012397 28.7388356,23.2416022 31.9457448,31.24996 C32.5697862,32.8083285 33.5194189,33.8967814 34.2928403,35.4791423 C39.3520139,45.8298248 51.9794882,42.0517284 58.7520495,35.1585368 C66.2280162,27.5494111 44.9242469,-1.21016311 40.9398001,1.34861654 C38.1563996,3.13609388 34.5484008,9.5213253 31.9646639,11.5792806 C26.862092,15.6434965 21.0698885,18.7867893 15.6225008,22.3905436 L20.7062796,21.4024089 Z" id="Path-7" fill="#FFD5BA" mask="url(#mask-12)"></path>
                                <g id="Group-13" mask="url(#mask-12)">
                                    <g transform="translate(3.000000, 28.000000)">
                                        <mask id="mask-14" fill="white">
                                            <use xlink:href="#path-13"></use>
                                        </mask>
                                        <use id="Path-4" stroke="none" fill="#FF9248" fill-rule="evenodd" xlink:href="#path-13"></use>
                                        <path d="M22.3904507,-12.1239854 C17.7283751,-5.4838186 21.8612695,7.39086071 22.6346908,8.97322157 C27.6938645,19.3239041 40.3213387,15.5458077 47.0939001,8.6526161 C52.0778779,3.57986563 43.8433947,-3.34566821 22.3904507,-12.1239854 Z" id="Path-7" stroke="none" fill="#FF8736" fill-rule="evenodd" mask="url(#mask-14)" transform="translate(34.354795, 1.622265) rotate(-31.000000) translate(-34.354795, -1.622265) "></path>
                                    </g>
                                </g>
                            </g>
                            <g id="Path-10" stroke-width="1" fill="none" transform="translate(17.000000, 7.000000)">
                                <mask id="mask-16" fill="white">
                                    <use xlink:href="#path-15"></use>
                                </mask>
                                <use id="Mask" fill="#FFE1CE" xlink:href="#path-15"></use>
                                <path d="M-3.90076541,34.1577376 C15.8426284,46.8860817 0.614825551,34.5067941 3.76584562,22.3735974 C3.69573064,21.2722466 2.46114705,21.5757543 2.33718213,20.4793255 C2.13274624,18.6711574 3.03826457,15.9185202 2.79206567,14.1157466 C-1.34758971,-16.1965786 -5.05934824,33.4710929 -5.76470588,14.3016677 L-3.90076541,34.1577376 Z" fill="#FFD5BA" mask="url(#mask-16)"></path>
                            </g>
                            <path d="M58.1285931,9.12589249 C59.5846385,-0.575732539 48.8247176,0.978187928 46.8507611,1.26261124 C44.8768045,1.54703455 34.6069041,3.52469532 30.8532025,13.9755019 C27.5428184,21.0898089 31.0130851,24.2847581 26.8596578,30.5223579 C22.7062305,36.7599576 22.691782,44.1914413 23.2672749,47.0120629 C23.8427679,49.8326845 25.3705036,57.0533381 34.7036894,56.6727457 C44.0368752,56.2921533 51.9975839,52.9393957 49.819989,42.3989421 C49.6404224,37.0535341 43.9131681,27.1329146 45.8068158,21.1127089 C45.9311926,20.6136398 56.6725477,18.8275175 58.1285931,9.12589249 Z" id="Path-3" fill="#783B12" transform="translate(40.631791, 28.843616) scale(-1, 1) translate(-40.631791, -28.843616) "></path>
                            <path d="M17.1739761,0.924434007 C28.9978987,1.65656076 32.9803353,6.44848676 29.1212859,15.300212 C28.1722335,10.8982792 25.3793111,9.6216323 20.7425186,11.4702714 L17.1739761,0.924434007 Z" id="Path-11" fill="#783B12" transform="translate(23.859817, 8.112323) scale(-1, 1) translate(-23.859817, -8.112323) "></path>
                        </g>
                    </g>
                </g>
                <g id="Group-12-Copy" transform="translate(241.000000, 176.000000) scale(-1, 1) translate(-241.000000, -176.000000) translate(207.000000, 144.000000)">
                    <mask id="mask-18" fill="white">
                        <use xlink:href="#path-17"></use>
                    </mask>
                    <use id="Combined-Shape-Copy" fill="#FFEFE5" xlink:href="#path-17"></use>
                    <g id="Group-12" mask="url(#mask-18)">
                        <g transform="translate(29.500000, 39.000000) scale(-1, 1) translate(-29.500000, -39.000000) translate(-2.000000, 6.000000)">
                            <g id="Path-8" stroke-width="1" fill="none" transform="translate(0.000000, 17.000000)">
                                <mask id="mask-20" fill="white">
                                    <use xlink:href="#path-19"></use>
                                </mask>
                                <use id="Mask" fill="#FFE1CE" xlink:href="#path-19"></use>
                                <path d="M20.7062796,21.4024089 C24.762509,24.4012397 29.6680587,22.3905436 32.8749679,30.3989014 C33.4990092,31.9572699 33.5194189,33.8967814 34.2928403,35.4791423 C39.3520139,45.8298248 51.9794882,42.0517284 58.7520495,35.1585368 C66.2280162,27.5494111 44.9242469,-1.21016311 40.9398001,1.34861654 C38.1563996,3.13609388 34.5484008,9.5213253 31.9646639,11.5792806 C26.862092,15.6434965 21.0698885,18.7867893 15.6225008,22.3905436 L20.7062796,21.4024089 Z" id="Path-7" fill="#FFD5BA" mask="url(#mask-20)"></path>
                                <g id="Group-13" mask="url(#mask-20)">
                                    <g transform="translate(3.000000, 28.000000)">
                                        <mask id="mask-22" fill="white">
                                            <use xlink:href="#path-21"></use>
                                        </mask>
                                        <use id="Path-4" stroke="none" fill="#FF9248" fill-rule="evenodd" xlink:href="#path-21"></use>
                                        <path d="M17.7062796,-6.59759115 C21.762509,-3.59876031 26.6680587,-5.60945638 29.8749679,2.39890137 C30.4990092,3.95726995 30.5194189,5.89678139 31.2928403,7.47914225 C36.3520139,17.8298248 48.9794882,14.0517284 55.7520495,7.15853678 C63.2280162,-0.450588921 41.9242469,-29.2101631 37.9398001,-26.6513835 C35.1563996,-24.8639061 31.5484008,-18.4786747 28.9646639,-16.4207194 C23.862092,-12.3565035 18.0698885,-9.21321072 12.6225008,-5.60945638 L17.7062796,-6.59759115 Z" id="Path-7" stroke="none" fill="#FF8736" fill-rule="evenodd" mask="url(#mask-22)"></path>
                                    </g>
                                </g>
                            </g>
                            <g id="Path-10" stroke-width="1" fill="none" transform="translate(16.000000, 8.000000)">
                                <mask id="mask-24" fill="white">
                                    <use xlink:href="#path-23"></use>
                                </mask>
                                <use id="Mask" fill="#FFE1CE" xlink:href="#path-23"></use>
                                <path d="M-2.18755744,34.728056 C17.5558364,47.4564001 1.1749483,34.1413231 5.31591797,22.1387234 C5.24580299,21.0373725 3.14666999,21.3725519 3.02270508,20.276123 C2.81826918,18.4679549 4.34190203,16.1044412 4.09570313,14.3016677 C-0.0439522642,-16.0106575 -4.05934824,33.4710929 -4.76470588,14.3016677 L-2.18755744,34.728056 Z" fill="#FFD5BA" mask="url(#mask-24)"></path>
                            </g>
                            <path d="M18.5347863,2.6322048 C20.2027829,1.34815112 22.5755891,0.894687424 26.4362742,1.04257382 C27.6055095,1.08736225 28.6212889,1.17801494 29.5173703,1.30521882 C28.9938322,1.02393815 28.3949448,0.731965047 27.7095947,0.43359375 C29.4455001,0.305818539 31.5526885,1.01675685 34.0311597,2.56640869 C34.4811906,2.77077331 34.8986336,2.98663433 35.3036901,3.20841866 C35.1693634,2.95827222 35.0363663,2.69783122 34.9046985,2.42709567 C35.5810571,3.06834861 36.1881244,3.59008056 36.7298746,4.01523509 C36.9140324,4.11912095 37.1006051,4.22286091 37.2915039,4.32592773 C39.9836136,5.77940562 40.6650102,5.87673093 42.7795122,6.17800046 C44.1894846,6.23096295 46.4394044,6.90646552 47.8386632,8.82525553 C48.8483425,10.0478841 49.4683126,11.9925113 49.6985733,14.6591373 C49.4890701,14.2204209 49.285514,13.8188228 49.0885455,13.4511006 C49.0867771,13.500867 49.0846503,13.5509487 49.0821603,13.6013474 C49.6328125,26.5019531 43.1071777,27.9165039 40.8183594,34.1972656 C41.7785645,28.2399902 44.6904297,24.7615967 44.8592529,22.6807861 C45.0280762,20.5999756 42.6345215,21.1224365 41.9534912,22.4500732 C41.2724609,23.77771 40.7670666,25.9814421 40.0688013,25.8803711 C40.1003418,24.1520996 37.6856221,19.8703699 36.7065718,18.8520508 C36.0179863,18.5250475 36.0179863,16.2311779 36.7065718,11.9704419 C31.1677757,13.4770077 25.2760018,13.7124056 19.03125,12.6766357 C18.616499,13.5348734 18.4989052,14.1367931 18.2788696,15.6317139 C17.7088631,15.8333084 14.2111816,10.1811743 15.9931641,6.17800046 C16.045618,6.06016421 16.0985465,5.94460536 16.1520378,5.83129812 C16.7351957,4.37062159 17.7350754,2.81914584 19.151677,1.17687089 C18.9131247,1.70096086 18.7090981,2.18518956 18.5347863,2.6322048 Z" id="Combined-Shape" fill="#783B12"></path>
                        </g>
                    </g>
                </g>
            </g>
        </g>
    </g>
</svg>