<svg xmlns="http://www.w3.org/2000/svg" xmlns:xlink="http://www.w3.org/1999/xlink" width="360" height="360" viewBox="0 0 360 360">
  <defs>
    <path id="illustration-mailbevestigd-a" d="M179.550781,325.916016 C52.9634942,326.563784 16.9883499,330.131411 3.453125,293.005859 C-10.0820999,255.880308 46.5736549,229.029371 38.8671875,203.921875 C29.6639556,173.937955 6.41198863,148.070759 0.681640625,113.185547 C-9.84710212,49.0886678 173.260555,-37.3489585 245.5,17.5 C298.722656,57.9101562 236.164275,97.0087885 245.5,139.5 C252.955609,173.43393 275.173204,192.037623 299,213 C352.662109,260.210938 306.138068,325.268247 179.550781,325.916016 Z M310.96963,105.300512 C316.738969,112.731217 348.390306,189.942882 307,196 C286.5,199 257.08576,148.293969 255.660221,137.17823 C250.159101,94.2828625 287.762365,75.4103691 310.96963,105.300512 Z"/>
    <path id="illustration-mailbevestigd-c" d="M44.8792419,113.384486 C53.1483738,119.947616 71.0155714,120.872295 81.201002,119.386781 C93.1591285,117.642725 107.028668,105.730723 106.999955,94.6063046 C106.946786,74.0065725 82.5739529,78.0573763 83.1434558,53.4032641 C83.7129587,28.7491518 51.3611773,47.9100022 51.3978051,25.2777155 C51.4344329,2.64542877 22.0152369,-6.25847165 8.00452057,4.6231461 C-6.00619575,15.5047639 -0.597441695,35.488173 16.2599494,42.1544752 C33.1173405,48.8207774 14.514338,68.5777612 35.676217,77.3779476 C56.838096,86.1781341 26.9017993,99.1159638 44.8792419,113.384486 Z"/>
    <path id="illustration-mailbevestigd-e" d="M2.30601937,0 L40.6939806,0 L40.6939806,8.8817842e-16 C41.7985501,6.85272294e-16 42.6939806,0.8954305 42.6939806,2 C42.6939806,2.09463774 42.6872634,2.18915613 42.6738796,2.28284271 L37.2453082,40.2828427 L37.2453082,40.2828427 C37.1045514,41.2681402 36.2607099,42 35.2654092,42 L7.7345908,42 L7.7345908,42 C6.73929005,42 5.8954486,41.2681402 5.75469182,40.2828427 L0.326120387,2.28284271 L0.326120387,2.28284271 C0.169910671,1.1893747 0.929708645,0.176310729 2.02317666,0.0201010127 C2.11686324,0.00671721544 2.21138164,-6.48749144e-16 2.30601937,-6.66133815e-16 Z"/>
    <path id="illustration-mailbevestigd-g" d="M2.53990081,70.2071288 L95.0798016,4.88484591 L95.0798016,4.88484591 C99.2285301,1.95633172 104.77147,1.95633172 108.920198,4.88484591 L201.460099,70.2071288 L201.460099,70.2071288 C203.05281,71.3313953 204,73.1593968 204,75.108936 L204,191 L204,191 C204,194.313708 201.313708,197 198,197 L6,197 L6,197 C2.6862915,197 4.05812251e-16,194.313708 0,191 L5.32907052e-15,75.108936 L8.8817842e-16,75.108936 C6.49428727e-16,73.1593968 0.947189946,71.3313953 2.53990081,70.2071288 Z"/>
    <path id="illustration-mailbevestigd-i" d="M101.902068,1.36386678 L193.116964,62.7753828 L193.116964,62.7753828 C193.668992,63.1470423 194,63.7689343 194,64.4344161 L194,108.869897 L194,108.869897 C194,111.079036 192.209139,112.869897 190,112.869897 L4,112.869897 L4,112.869897 C1.790861,112.869897 5.34769572e-14,111.079036 3.06421555e-14,108.869897 L7.73044823e-14,64.4399914 L7.59392549e-14,64.4399914 C8.06077547e-14,63.7714356 0.33405272,63.1470929 0.890245877,62.7761267 L92.9951953,1.34454118 L92.9951953,1.34454118 C95.6935532,-0.455192735 99.211545,-0.447559605 101.902068,1.36386678 Z"/>
  </defs>
  <g fill="none" fill-rule="evenodd">
    <rect width="360" height="360" fill="#FFF"/>
    <g transform="translate(21 18)">
      <mask id="illustration-mailbevestigd-b" fill="#fff">
        <use xlink:href="#illustration-mailbevestigd-a"/>
      </mask>
      <use fill="#FFF8F4" xlink:href="#illustration-mailbevestigd-a"/>
      <g mask="url(#illustration-mailbevestigd-b)">
        <g transform="translate(29 35)">
          <rect width="22" height="11" x="124" y="20" fill="#FFE1CE" rx="2"/>
          <rect width="22" height="11" x="160" y="267" fill="#FFE1CE" rx="2"/>
          <rect width="22" height="11" x="11" y="213" fill="#FFE1CE" rx="2"/>
          <rect width="22" height="11" x="203" y="213" fill="#FFE1CE" rx="2"/>
          <rect width="22" height="11" x="31" y="158" fill="#FFE1CE" rx="2"/>
          <rect width="22" height="11" x="99" y="103" fill="#FFE1CE" rx="2"/>
          <rect width="22" height="11" x="110" y="6" fill="#FFF" rx="2"/>
          <rect width="22" height="11" x="113" y="87" fill="#FFF" rx="2"/>
          <rect width="22" height="11" x="42" y="108" fill="#FFF" rx="2"/>
          <rect width="22" height="11" x="220" y="229" fill="#FFF" rx="2"/>
          <rect width="22" height="11" x="160" y="158" fill="#FFF" rx="2"/>
          <rect width="22" height="11" fill="#FFF" rx="2"/>
          <rect width="22" height="11" x="257" y="72" fill="#FFF" rx="2"/>
          <rect width="22" height="11" x="201" y="92" fill="#FFE1CE" rx="2"/>
        </g>
      </g>
    </g>
    <path fill="#FFEFE5" d="M233.123222 90.519106C237.335219 82.839702 244.751775 79 255.37289 79 272.297695 79 272.540859 87 284.37289 87 296.204921 87 302.070156 67 327.37289 67 343.869447 67 352.840673 74.969902 354.286568 90.9097059L354.286524 90.9097099C354.336414 91.4597119 353.930994 91.9460208 353.380992 91.9959113 353.350957 91.9986357 353.320815 92 353.290657 92L233.999998 92 233.999998 91.9999979C233.447714 91.9999979 233 91.5522836 233 91 233 90.8318929 233.04238 90.6664986 233.123222 90.519106zM.123221569 108.519106C4.33521876 100.839702 11.7517749 97 22.3728901 97 39.2976948 97 39.5408588 105 51.3728901 105 63.2049213 105 69.0701557 85 94.3728901 85 110.869447 85 119.840673 92.969902 121.286568 108.909706L121.286524 108.90971C121.336414 109.459712 120.930994 109.946021 120.380992 109.995911 120.350957 109.998636 120.320815 110 120.290657 110L.999997925 110 .999997925 109.999998C.447714321 109.999998 1.27259314e-14 109.552284 1.26565425e-14 109 1.26426647e-14 108.831893.042379702 108.666499.123221569 108.519106zM62.1232167 40.519124C66.3352122 32.839708 73.7517717 29 84.3728951 29 101.2977 29 101.540864 37 113.372895 37 125.204926 37 131.070161 17 156.372895 17 174.611333 17 175.500005 37 188.500005 37 201.500005 37 199.000005 29.5 215.000005 29.5 225.118918 29.5 231.150001 33.2497214 233.093255 40.7491643L233.093255 40.7491643C233.231788 41.2837923 232.910689 41.829497 232.376061 41.9680297 232.294139 41.9892574 232.209853 42 232.125225 42L62.999962 42 62.999962 41.999962C62.4476982 41.999962 62 41.5522638 62 41 62 40.8318992 62.042378 40.6665111 62.1232167 40.519124z"/>
    <g transform="translate(0 180)">
      <g transform="matrix(-1 0 0 1 135.375 .291)">
        <mask id="illustration-mailbevestigd-d" fill="#fff">
          <use xlink:href="#illustration-mailbevestigd-c"/>
        </mask>
        <use fill="#FFC7A4" xlink:href="#illustration-mailbevestigd-c"/>
        <path stroke="#FFEFE5" stroke-linecap="round" stroke-width="2" d="M79.2373047,125.633789 C65.7552545,76.7638578 43.1846165,33.7967354 18,16" mask="url(#illustration-mailbevestigd-d)"/>
        <rect width="60" height="97" x="-4" y="9" fill="#000" fill-opacity=".08" mask="url(#illustration-mailbevestigd-d)" rx="7"/>
        <path fill="#000" fill-opacity=".08" d="M69.4858132,131.708779 C82.1439175,127.29374 78.6165676,128.561949 85.351814,100.16816 C92.0870603,71.774371 61.7253901,82.758372 65.4858132,59.2087792 C66.3196547,53.9868596 65.6494912,49.6915836 64.1997279,46.6340779 C62.4858132,50.7087792 63.5358621,53.7087792 63.0358621,57.7087792 C62.361194,63.1061235 60.9858132,65.2087792 60.1857644,66.6088036 C58.9969451,86.4714827 64.8707998,133.318457 69.4858132,131.708779 Z" mask="url(#illustration-mailbevestigd-d)" transform="matrix(-1 0 0 1 146.361 0)"/>
      </g>
      <g transform="translate(.985 29.634)">
        <path fill="#FFE5D4" d="M54.0146484,95.3662109 C67.1777941,94.2215896 65.5146484,92.8662109 68.5146484,68.3662109 C71.5146484,43.8662109 44.6114385,56.4582746 48.5146484,31.3662109 C52.4178583,6.27414732 22.5253648,-6.51540681 8.51464844,4.36621094 C-5.49606789,15.2478287 1.51464844,31.8662109 15.5146484,41.3662109 C29.5146484,50.8662109 9.51464844,66.3662109 29.5146484,79.3662109 C49.5146484,92.3662109 42.5146484,96.3662109 54.0146484,95.3662109 Z"/>
        <path stroke="#FFF5EF" stroke-linecap="round" stroke-width="2" d="M59.0146484,105.366211 C43.1835938,57.5146484 40.765625,36.5859375 18.0146484,16.3662109"/>
      </g>
      <g transform="translate(38 120)">
        <mask id="illustration-mailbevestigd-f" fill="#fff">
          <use xlink:href="#illustration-mailbevestigd-e"/>
        </mask>
        <use fill="#FFAA71" xlink:href="#illustration-mailbevestigd-e"/>
        <path fill="#000" fill-opacity=".08" d="M5,42 L5,47 L45,47 L45,-2 L5,-2 L5,1.77635684e-15 L37.6939806,0 L37.6939806,8.8817842e-16 C38.7985501,8.8817842e-16 39.6939806,0.8954305 39.6939806,2 C39.6939806,2.09463774 39.6872634,2.18915613 39.6738796,2.28284271 L34.2453082,40.2828427 L34.2453082,40.2828427 C34.1045514,41.2681402 33.2607099,42 32.2654092,42 L5,42 Z" mask="url(#illustration-mailbevestigd-f)"/>
      </g>
    </g>
    <g transform="translate(83 86)">
      <mask id="illustration-mailbevestigd-h" fill="#fff">
        <use xlink:href="#illustration-mailbevestigd-g"/>
      </mask>
      <use fill="#FF9248" xlink:href="#illustration-mailbevestigd-g"/>
      <rect width="84" height="11" x="61" y="20" fill="#000" fill-opacity=".04" mask="url(#illustration-mailbevestigd-h)"/>
    </g>
    <path fill="#FF8736" d="M189.748884,206.118391 L286.07824,267.779869 L286.07824,267.779869 C286.652564,268.1475 287,268.782417 287,269.464327 L287,278.869897 L287,278.869897 C287,281.079036 285.209139,282.869897 283,282.869897 L87,282.869897 L87,282.869897 C84.790861,282.869897 83,281.079036 83,278.869897 L83,269.469588 L83,269.469588 C83,268.784805 83.3503493,268.147627 83.9285813,267.780783 L181.150249,206.101003 L181.150249,206.101003 C183.776211,204.435029 187.129681,204.44181 189.748884,206.118391 Z"/>
    <g transform="translate(88 109)">
      <mask id="illustration-mailbevestigd-j" fill="#fff">
        <use xlink:href="#illustration-mailbevestigd-i"/>
      </mask>
      <use fill="#FFF" transform="matrix(1 0 0 -1 0 112.87)" xlink:href="#illustration-mailbevestigd-i"/>
      <path fill="#000" fill-opacity=".06" d="M101.541627,107.962137 C150.88912,77.5722278 173.803225,63.5651483 170.28394,65.9408984 C168.331268,67.2590813 104.961527,110.021395 103.856825,110.739478 C101.856825,112.039527 100.266323,113.439551 97.356825,113.439551 C94.4473267,113.439551 92.524432,111.829588 90.856825,110.739478 C61.3121276,91.4261822 39.1917214,76.6901322 24.273591,66.6545412 C14.2777125,59.9302034 37.2421113,73.7025077 93.1667874,107.971454 L93.1667864,107.971456 C95.7371818,109.546516 98.9747429,109.542914 101.541627,107.962137 Z" mask="url(#illustration-mailbevestigd-j)"/>
      <path fill="#FF7F28" d="M89.6922228,64.5238065 L74.6582373,49.489821 C73.0961402,47.9277238 70.5634802,47.9277238 69.0013831,49.489821 L69.0013831,49.489821 L67.5871695,50.9040345 C66.0250723,52.4661317 66.0250723,54.9987916 67.5871695,56.5608888 L85.3158559,74.2895752 C85.3581098,74.3359544 85.40165,74.3815803 85.4464766,74.4264069 L85.4464766,74.4264069 L86.8606902,75.8406204 C87.9097712,76.8897014 89.3966016,77.2342354 90.7332095,76.8742223 C91.3886417,76.6985744 92.0081433,76.353602 92.5224401,75.8393051 L92.5224401,75.8393051 L93.9366537,74.4250916 C93.9706578,74.3910874 94.0039218,74.3566233 94.0364455,74.3217193 L132.115524,36.2426407 C133.677621,34.6805435 133.677621,32.1478836 132.115524,30.5857864 L130.701311,29.1715729 C129.139213,27.6094757 126.606554,27.6094757 125.044456,29.1715729 L89.6922228,64.5238065 Z" mask="url(#illustration-mailbevestigd-j)"/>
    </g>
  </g>
</svg>
