<svg xmlns="http://www.w3.org/2000/svg" xmlns:xlink="http://www.w3.org/1999/xlink" width="360" height="360" viewBox="0 0 360 360">
  <defs>
    <circle id="illustration-chat-a" cx="32" cy="32" r="32"/>
    <path id="illustration-chat-c" d="M21.1377531,18.5416829 C22.1569374,21.1254015 22.007986,24.4513509 20.6908987,28.5195313 C18.7152678,34.6218018 3.00048186,27.7343669 0.853637695,37.4195231 C-1.29320647,47.1046794 23.5062163,48.723904 30.150532,48.0621094 C34.5800757,47.620913 42.222339,47.826143 53.0773219,48.6777995 C59.7677259,49.4125868 63.0608488,47.3657362 62.9566907,42.5372477 C62.8525326,37.7087592 56.2201442,33.4071696 43.0595253,29.6324788 C40.867618,24.5147542 40.2090743,20.1393934 41.0838944,16.5063965 C42.036968,13.4933431 43.4435071,9.83309733 45.3035118,5.52565918 L45.3035118,0.185823568 L41.0838944,0.619278971 L35.008455,8.49285482 L26.8594328,18.5416829 L22.9972181,16.5063965 L21.1377531,18.5416829 Z"/>
    <path id="illustration-chat-e" d="M14.236084,2.62304688 C38.7376816,11.7273663 25.6372064,5.37903899 41.0473633,1.0871582 C58.3447436,-3.73033294 50.3592296,21.1932058 38.8759766,23.9274902 C17.6632164,28.9784737 -18.8802321,-1.66008562 13.5517578,1.39599609 L14.236084,2.62304688 Z"/>
    <path id="illustration-chat-g" d="M2.16845082,5.22969092 C-1.119087,22.0641726 -0.425008543,30.6905323 4.25068619,31.1087698 C7.56522462,31.9078185 14.4387602,28.8921445 17.209268,28.3237588 C19.0562732,27.9448349 20.7711564,25.3626975 22.3539177,20.5773464 L27.2227137,8.30596759 L15.1795257,0 L3.87074332,0.856255884 L2.16845082,5.22969092 Z"/>
    <path id="illustration-chat-i" d="M4.79851153,11.2 L0.750683551,14.4382624 L0.750683551,14.4382624 C0.635354146,14.5305259 0.530599551,14.6352805 0.438336027,14.7506099 C-0.251683069,15.6131338 -0.11184032,16.8717185 0.750683551,17.5617376 L0.750683551,17.5617376 L4.79851153,20.8 L4.79851153,42 C4.79851153,46.418278 8.38023353,50 12.7985115,50 L196.798512,50 C201.21679,50 204.798512,46.418278 204.798512,42 L204.798512,8 C204.798512,3.581722 201.21679,-8.11624501e-16 196.798512,0 L12.7985115,0 L12.7985115,0 C8.38023353,8.11624501e-16 4.79851153,3.581722 4.79851153,8 L4.79851153,8 L4.79851153,11.2 Z"/>
    <circle id="illustration-chat-k" cx="32" cy="32" r="32"/>
    <path id="illustration-chat-m" d="M21.1377531,18.5416829 C22.1569374,21.1254015 22.007986,24.4513509 20.6908987,28.5195313 C18.7152678,34.6218018 3.00048186,27.7343669 0.853637695,37.4195231 C-1.29320647,47.1046794 23.5062163,48.723904 30.150532,48.0621094 C34.5800757,47.620913 42.222339,47.826143 53.0773219,48.6777995 C59.7677259,49.4125868 63.0608488,47.3657362 62.9566907,42.5372477 C62.8525326,37.7087592 56.2201442,33.4071696 43.0595253,29.6324788 C40.867618,24.5147542 40.2090743,20.1393934 41.0838944,16.5063965 C42.036968,13.4933431 43.4435071,9.83309733 45.3035118,5.52565918 L45.3035118,0.185823568 L41.0838944,0.619278971 L35.008455,8.49285482 L26.8594328,18.5416829 L22.9972181,16.5063965 L21.1377531,18.5416829 Z"/>
    <path id="illustration-chat-o" d="M14.236084,2.62304688 C38.7376816,11.7273663 25.6372064,5.37903899 41.0473633,1.0871582 C58.3447436,-3.73033294 50.3592296,21.1932058 38.8759766,23.9274902 C17.6632164,28.9784737 -18.8802321,-1.66008562 13.5517578,1.39599609 L14.236084,2.62304688 Z"/>
    <path id="illustration-chat-q" d="M2.67452798,5.02457242 C-0.443777133,21.4987683 0.536946615,30.1442233 5.61669922,30.9609375 C8.93123765,31.7599862 15.6708984,29.6426045 18.4414062,29.0742187 C20.2884115,28.6952949 21.9259153,25.8630041 23.3539177,20.5773464 L28.2227137,8.30596759 L16.1795257,0 L4.75305509,1.38848712 L2.67452798,5.02457242 Z"/>
    <path id="illustration-chat-s" d="M4.79851153,11.2 L0.750683551,14.4382624 L0.750683551,14.4382624 C0.635354146,14.5305259 0.530599551,14.6352805 0.438336027,14.7506099 C-0.251683069,15.6131338 -0.11184032,16.8717185 0.750683551,17.5617376 L0.750683551,17.5617376 L4.79851153,20.8 L4.79851153,42 C4.79851153,46.418278 8.38023353,50 12.7985115,50 L196.798512,50 C201.21679,50 204.798512,46.418278 204.798512,42 L204.798512,8 C204.798512,3.581722 201.21679,-8.11624501e-16 196.798512,0 L12.7985115,0 L12.7985115,0 C8.38023353,8.11624501e-16 4.79851153,3.581722 4.79851153,8 L4.79851153,8 L4.79851153,11.2 Z"/>
    <circle id="illustration-chat-u" cx="32" cy="32" r="32"/>
    <path id="illustration-chat-w" d="M21.1377531,18.5416829 C22.1569374,21.1254015 22.007986,24.4513509 20.6908987,28.5195313 C18.7152678,34.6218018 3.00048186,27.7343669 0.853637695,37.4195231 C-1.29320647,47.1046794 23.5062163,48.723904 30.150532,48.0621094 C34.5800757,47.620913 42.222339,47.826143 53.0773219,48.6777995 C59.7677259,49.4125868 63.0608488,47.3657362 62.9566907,42.5372477 C62.8525326,37.7087592 56.2201442,33.4071696 43.0595253,29.6324788 C40.867618,24.5147542 40.2090743,20.1393934 41.0838944,16.5063965 C42.036968,13.4933431 43.4435071,9.83309733 45.3035118,5.52565918 L45.3035118,0.185823568 L41.0838944,0.619278971 L35.008455,8.49285482 L26.8594328,18.5416829 L22.9972181,16.5063965 L21.1377531,18.5416829 Z"/>
    <path id="illustration-chat-y" d="M14.236084,2.62304688 C38.7376816,11.7273663 25.6372064,5.37903899 41.0473633,1.0871582 C58.3447436,-3.73033294 50.3592296,21.1932058 38.8759766,23.9274902 C17.6632164,28.9784737 -18.8802321,-1.66008562 13.5517578,1.39599609 L14.236084,2.62304688 Z"/>
    <path id="illustration-chat-A" d="M2.16845082,5.22969092 C-1.119087,22.0641726 -0.425008543,30.6905323 4.25068619,31.1087698 C7.56522462,31.9078185 14.4387602,28.8921445 17.209268,28.3237588 C19.0562732,27.9448349 20.7711564,25.3626975 22.3539177,20.5773464 L27.2227137,8.30596759 L15.1795257,0 L3.87074332,0.856255884 L2.16845082,5.22969092 Z"/>
    <path id="illustration-chat-C" d="M4.79851153,11.2 L0.750683551,14.4382624 L0.750683551,14.4382624 C0.635354146,14.5305259 0.530599551,14.6352805 0.438336027,14.7506099 C-0.251683069,15.6131338 -0.11184032,16.8717185 0.750683551,17.5617376 L0.750683551,17.5617376 L4.79851153,20.8 L4.79851153,42 C4.79851153,46.418278 8.38023353,50 12.7985115,50 L196.798512,50 C201.21679,50 204.798512,46.418278 204.798512,42 L204.798512,8 C204.798512,3.581722 201.21679,-8.11624501e-16 196.798512,0 L12.7985115,0 L12.7985115,0 C8.38023353,8.11624501e-16 4.79851153,3.581722 4.79851153,8 L4.79851153,8 L4.79851153,11.2 Z"/>
  </defs>
  <g fill="none" fill-rule="evenodd">
    <rect width="360" height="360" fill="#FFF"/>
    <path fill="#FFF8F4" d="M152.146732,67.6956415 C152.244388,-36.8238897 296.283451,-0.41959284 291.666263,64.9261103 C287.049076,130.271813 243.834232,129.285485 258.765872,191.310876 C273.697513,253.336267 199.321971,323.769016 131.00806,319.117517 C62.6941489,314.466017 -0.200924434,265.697595 45.6525912,208.750329 C91.5061068,151.803063 152.049076,172.215173 152.146732,67.6956415 Z M56.6499327,97.8560135 C94.0670565,87.1101746 102.324666,38.7997948 132.052241,66.407494 C161.779815,94.0151932 119.433321,162.12207 76.3315733,158.584529 C33.2298257,155.046988 19.2328088,108.601852 56.6499327,97.8560135 Z" transform="translate(22 19)"/>
    <g transform="translate(14 54)">
      <mask id="illustration-chat-b" fill="#fff">
        <use xlink:href="#illustration-chat-a"/>
      </mask>
      <use fill="#FFEFE5" xlink:href="#illustration-chat-a"/>
      <g mask="url(#illustration-chat-b)">
        <g transform="scale(-1 1) rotate(-7 41.875 533.67)">
          <path fill="#783B12" d="M41.7169067,14.7528306 C43.1729521,5.05120558 32.4130312,6.60512605 30.4390747,6.88954936 C28.4651181,7.17397267 18.1952177,9.15163344 14.4415161,19.60244 C11.1311319,26.716747 13.7936738,29.1939418 9.64024653,35.4315415 C5.48681926,41.6691413 5.62041766,50.045002 6.19591059,52.8656236 C6.77140352,55.6862452 7.08377669,61.7280828 16.4169625,61.3474904 C25.7501483,60.966898 34.1791695,57.2239482 32.0015747,46.6834947 C31.8220081,41.3380866 27.5014816,32.7598527 29.3951293,26.739647 C29.5195062,26.2405779 40.2608613,24.4544556 41.7169067,14.7528306 Z"/>
          <g transform="translate(0 16)">
            <mask id="illustration-chat-d" fill="#fff">
              <use xlink:href="#illustration-chat-c"/>
            </mask>
            <use fill="#FFE1CE" xlink:href="#illustration-chat-c"/>
            <path fill="#FFD5BA" d="M20.7062796,21.4024089 C24.762509,24.4012397 28.7388356,23.2416022 31.9457448,31.24996 C32.5697862,32.8083285 33.5194189,33.8967814 34.2928403,35.4791423 C39.3520139,45.8298248 51.9794882,42.0517284 58.7520495,35.1585368 C66.2280162,27.5494111 44.9242469,-1.21016311 40.9398001,1.34861654 C38.1563996,3.13609388 34.5484008,9.5213253 31.9646639,11.5792806 C26.862092,15.6434965 21.0698885,18.7867893 15.6225008,22.3905436 L20.7062796,21.4024089 Z" mask="url(#illustration-chat-d)"/>
            <g mask="url(#illustration-chat-d)">
              <g transform="translate(3 28)">
                <mask id="illustration-chat-f" fill="#fff">
                  <use xlink:href="#illustration-chat-e"/>
                </mask>
                <use fill="#FF9248" xlink:href="#illustration-chat-e"/>
                <path fill="#FF8736" d="M22.3904507,-12.1239854 C17.7283751,-5.4838186 21.8612695,7.39086071 22.6346908,8.97322157 C27.6938645,19.3239041 40.3213387,15.5458077 47.0939001,8.6526161 C52.0778779,3.57986563 43.8433947,-3.34566821 22.3904507,-12.1239854 Z" mask="url(#illustration-chat-f)" transform="rotate(-31 34.355 1.622)"/>
              </g>
            </g>
          </g>
          <g transform="translate(17 7)">
            <mask id="illustration-chat-h" fill="#fff">
              <use xlink:href="#illustration-chat-g"/>
            </mask>
            <use fill="#FFE1CE" xlink:href="#illustration-chat-g"/>
            <path fill="#FFD5BA" d="M-3.90076541,34.1577376 C15.8426284,46.8860817 0.614825551,34.5067941 3.76584562,22.3735974 C3.69573064,21.2722466 2.46114705,21.5757543 2.33718213,20.4793255 C2.13274624,18.6711574 3.03826457,15.9185202 2.79206567,14.1157466 C-1.34758971,-16.1965786 -5.05934824,33.4710929 -5.76470588,14.3016677 L-3.90076541,34.1577376 Z" mask="url(#illustration-chat-h)"/>
          </g>
          <path fill="#783B12" d="M58.1285931,9.12589249 C59.5846385,-0.575732539 48.8247176,0.978187928 46.8507611,1.26261124 C44.8768045,1.54703455 34.6069041,3.52469532 30.8532025,13.9755019 C27.5428184,21.0898089 31.0130851,24.2847581 26.8596578,30.5223579 C22.7062305,36.7599576 22.691782,44.1914413 23.2672749,47.0120629 C23.8427679,49.8326845 25.3705036,57.0533381 34.7036894,56.6727457 C44.0368752,56.2921533 51.9975839,52.9393957 49.819989,42.3989421 C49.6404224,37.0535341 43.9131681,27.1329146 45.8068158,21.1127089 C45.9311926,20.6136398 56.6725477,18.8275175 58.1285931,9.12589249 Z" transform="matrix(-1 0 0 1 81.264 0)"/>
          <path fill="#783B12" d="M17.1739761,0.924434007 C28.9978987,1.65656076 32.9803353,6.44848676 29.1212859,15.300212 C28.1722335,10.8982792 25.3793111,9.6216323 20.7425186,11.4702714 L17.1739761,0.924434007 Z" transform="matrix(-1 0 0 1 47.72 0)"/>
        </g>
      </g>
      <g transform="translate(70 3)">
        <g transform="translate(0 13)">
          <mask id="illustration-chat-j" fill="#fff">
            <use xlink:href="#illustration-chat-i"/>
          </mask>
          <use fill="#FFAA71" xlink:href="#illustration-chat-i"/>
          <circle cx="203" cy="1" r="17" fill="#000" fill-opacity=".06" mask="url(#illustration-chat-j)"/>
        </g>
        <g transform="translate(189)">
          <circle cx="14" cy="14" r="14" fill="#FF7F28"/>
          <path fill="#FFF5EF" d="M13.583837,18.5104692 L10.910959,19.7337894 L10.910959,19.7337894 C10.408772,19.9636299 9.81534646,19.7428493 9.585506,19.2406623 C9.50953298,19.074666 9.48044943,18.8910397 9.50140839,18.7096909 L9.83889028,15.7896061 L9.83889028,15.7896061 C9.87225627,15.5009047 9.77837555,15.2119695 9.58168742,14.9980171 L7.59227607,12.8339858 L7.59227607,12.8339858 C7.21850048,12.4274022 7.24509665,11.794796 7.65168028,11.4210204 C7.78607519,11.2974701 7.95172685,11.2130664 8.1306765,11.1769597 L11.0121298,10.5955682 L11.0121298,10.5955682 C11.2970119,10.5380875 11.5427948,10.3595157 11.6854956,10.1063393 L13.1288498,7.5455742 L13.1288498,7.5455742 C13.4000308,7.06445124 14.0098937,6.89425965 14.4910166,7.16544065 C14.6500503,7.25507866 14.7815122,7.38654056 14.8711502,7.5455742 L16.3145044,10.1063393 L16.3145044,10.1063393 C16.4572052,10.3595157 16.7029881,10.5380875 16.9878702,10.5955682 L19.8693235,11.1769597 L19.8693235,11.1769597 C20.4106982,11.286193 20.761018,11.8136149 20.6517847,12.3549896 C20.615678,12.5339392 20.5312742,12.6995909 20.4077239,12.8339858 L18.4183126,14.9980171 L18.4183126,14.9980171 C18.2216245,15.2119695 18.1277437,15.5009047 18.1611097,15.7896061 L18.4985916,18.7096909 L18.4985916,18.7096909 C18.5619985,19.2583238 18.1686452,19.7544801 17.6200124,19.817887 C17.4386636,19.838846 17.2550373,19.8097624 17.089041,19.7337894 L14.416163,18.5104692 L14.416163,18.5104692 C14.1519022,18.3895226 13.8480978,18.3895226 13.583837,18.5104692 Z"/>
        </g>
        <g fill="#FFE1CE" transform="translate(18 24)">
          <rect width="31" height="6" rx="1"/>
          <rect width="41" height="6" y="11" rx="1"/>
          <rect width="31" height="6" x="37" rx="1"/>
          <rect width="21" height="6" x="84" y="11" rx="1"/>
          <rect width="41" height="6" x="74" rx="1"/>
          <rect width="31" height="6" x="47" y="11" rx="1"/>
          <rect width="21" height="6" x="121" rx="1"/>
          <rect width="41" height="6" x="111" y="11" rx="1"/>
          <rect width="21" height="6" y="22" rx="1"/>
          <rect width="41" height="6" x="27" y="22" rx="1"/>
          <rect width="11" height="6" x="74" y="22" rx="1"/>
          <rect width="11" height="6" x="91" y="22" rx="1"/>
        </g>
      </g>
    </g>
    <g transform="matrix(-1 0 0 1 346 130)">
      <mask id="illustration-chat-l" fill="#fff">
        <use xlink:href="#illustration-chat-k"/>
      </mask>
      <use fill="#FFEFE5" xlink:href="#illustration-chat-k"/>
      <g mask="url(#illustration-chat-l)">
        <g transform="matrix(-1 0 0 1 61 6)">
          <g transform="translate(0 17)">
            <mask id="illustration-chat-n" fill="#fff">
              <use xlink:href="#illustration-chat-m"/>
            </mask>
            <use fill="#FFE1CE" xlink:href="#illustration-chat-m"/>
            <path fill="#FFD5BA" d="M20.7062796,21.4024089 C24.762509,24.4012397 29.6680587,22.3905436 32.8749679,30.3989014 C33.4990092,31.9572699 33.5194189,33.8967814 34.2928403,35.4791423 C39.3520139,45.8298248 51.9794882,42.0517284 58.7520495,35.1585368 C66.2280162,27.5494111 44.9242469,-1.21016311 40.9398001,1.34861654 C38.1563996,3.13609388 34.5484008,9.5213253 31.9646639,11.5792806 C26.862092,15.6434965 21.0698885,18.7867893 15.6225008,22.3905436 L20.7062796,21.4024089 Z" mask="url(#illustration-chat-n)"/>
            <g mask="url(#illustration-chat-n)">
              <g transform="translate(3 28)">
                <mask id="illustration-chat-p" fill="#fff">
                  <use xlink:href="#illustration-chat-o"/>
                </mask>
                <use fill="#FF9248" xlink:href="#illustration-chat-o"/>
                <path fill="#FF8736" d="M17.7062796,-6.59759115 C21.762509,-3.59876031 26.6680587,-5.60945638 29.8749679,2.39890137 C30.4990092,3.95726995 30.5194189,5.89678139 31.2928403,7.47914225 C36.3520139,17.8298248 48.9794882,14.0517284 55.7520495,7.15853678 C63.2280162,-0.450588921 41.9242469,-29.2101631 37.9398001,-26.6513835 C35.1563996,-24.8639061 31.5484008,-18.4786747 28.9646639,-16.4207194 C23.862092,-12.3565035 18.0698885,-9.21321072 12.6225008,-5.60945638 L17.7062796,-6.59759115 Z" mask="url(#illustration-chat-p)"/>
              </g>
            </g>
          </g>
          <g transform="translate(16 8)">
            <mask id="illustration-chat-r" fill="#fff">
              <use xlink:href="#illustration-chat-q"/>
            </mask>
            <use fill="#FFE1CE" xlink:href="#illustration-chat-q"/>
            <path fill="#FFD5BA" d="M-2.18755744,34.728056 C17.5558364,47.4564001 1.1749483,34.1413231 5.31591797,22.1387234 C5.24580299,21.0373725 3.14666999,21.3725519 3.02270508,20.276123 C2.81826918,18.4679549 4.34190203,16.1044412 4.09570313,14.3016677 C-0.0439522642,-16.0106575 -4.05934824,33.4710929 -4.76470588,14.3016677 L-2.18755744,34.728056 Z" mask="url(#illustration-chat-r)"/>
          </g>
          <path fill="#783B12" d="M18.5347863,2.6322048 C20.2027829,1.34815112 22.5755891,0.894687424 26.4362742,1.04257382 C27.6055095,1.08736225 28.6212889,1.17801494 29.5173703,1.30521882 C28.9938322,1.02393815 28.3949448,0.731965047 27.7095947,0.43359375 C29.4455001,0.305818539 31.5526885,1.01675685 34.0311597,2.56640869 C34.4811906,2.77077331 34.8986336,2.98663433 35.3036901,3.20841866 C35.1693634,2.95827222 35.0363663,2.69783122 34.9046985,2.42709567 C35.5810571,3.06834861 36.1881244,3.59008056 36.7298746,4.01523509 C36.9140324,4.11912095 37.1006051,4.22286091 37.2915039,4.32592773 C39.9836136,5.77940562 40.6650102,5.87673093 42.7795122,6.17800046 C44.1894846,6.23096295 46.4394044,6.90646552 47.8386632,8.82525553 C48.8483425,10.0478841 49.4683126,11.9925113 49.6985733,14.6591373 C49.4890701,14.2204209 49.285514,13.8188228 49.0885455,13.4511006 C49.0867771,13.500867 49.0846503,13.5509487 49.0821603,13.6013474 C49.6328125,26.5019531 43.1071777,27.9165039 40.8183594,34.1972656 C41.7785645,28.2399902 44.6904297,24.7615967 44.8592529,22.6807861 C45.0280762,20.5999756 42.6345215,21.1224365 41.9534912,22.4500732 C41.2724609,23.77771 40.7670666,25.9814421 40.0688013,25.8803711 C40.1003418,24.1520996 37.6856221,19.8703699 36.7065718,18.8520508 C36.0179863,18.5250475 36.0179863,16.2311779 36.7065718,11.9704419 C31.1677757,13.4770077 25.2760018,13.7124056 19.03125,12.6766357 C18.616499,13.5348734 18.4989052,14.1367931 18.2788696,15.6317139 C17.7088631,15.8333084 14.2111816,10.1811743 15.9931641,6.17800046 C16.045618,6.06016421 16.0985465,5.94460536 16.1520378,5.83129812 C16.7351957,4.37062159 17.7350754,2.81914584 19.151677,1.17687089 C18.9131247,1.70096086 18.7090981,2.18518956 18.5347863,2.6322048 Z"/>
        </g>
      </g>
      <g transform="translate(68 4)">
        <g transform="translate(0 12)">
          <mask id="illustration-chat-t" fill="#fff">
            <use xlink:href="#illustration-chat-s"/>
          </mask>
          <use fill="#FF9248" xlink:href="#illustration-chat-s"/>
          <circle cx="203" cy="2" r="17" fill="#000" fill-opacity=".06" mask="url(#illustration-chat-t)"/>
        </g>
        <g transform="matrix(-1 0 0 1 217 0)">
          <circle cx="14" cy="14" r="14" fill="#FF7F28"/>
          <path fill="#FFF5EF" d="M15.8644951,14 L18.9280268,8.48564293 C19.010559,8.33708493 19.0538695,8.16994425 19.0538695,8 C19.0538695,7.44771525 18.6061542,7 18.0538695,7 L18.0538695,7 L12.5555556,7 L12.5555556,7 C12.0868569,7 11.6810435,7.32553199 11.5793685,7.78306954 L11.5793685,7.78306954 L10.0238129,14.7830695 C10.0079852,14.8542944 10,14.9270377 10,15 C10,15.5522847 10.4477153,16 11,16 L13.2096606,16 L11.6358236,21.7891091 C11.5569532,22.0792215 11.6473934,22.3890596 11.8699465,22.5911881 C12.1970135,22.8882385 12.7029606,22.8639054 13.0000111,22.5368384 L13.0000111,22.5368384 L19.2345389,15.6723219 C19.4016798,15.4882917 19.4942799,15.2486025 19.4942799,15 C19.4942799,14.4477153 19.0465647,14 18.4942799,14 L18.4942799,14 L15.8644951,14 Z"/>
        </g>
        <g fill="#FFE1CE" transform="matrix(-1 0 0 1 184 23)">
          <rect width="41" height="6" rx="1"/>
          <rect width="21" height="6" y="11" rx="1"/>
          <rect width="31" height="6" x="47" rx="1"/>
          <rect width="31" height="6" x="64" y="11" rx="1"/>
          <rect width="11" height="6" x="84" rx="1"/>
          <rect width="31" height="6" x="27" y="11" rx="1"/>
          <rect width="24" height="6" x="101" rx="1"/>
          <rect width="50" height="6" x="101" y="11" rx="1"/>
          <rect width="41" height="6" y="22" rx="1"/>
          <rect width="31" height="6" x="47" y="22" rx="1"/>
          <rect width="21" height="6" x="121" y="22" rx="1"/>
          <rect width="31" height="6" x="84" y="22" rx="1"/>
        </g>
      </g>
    </g>
    <g transform="translate(14 206)">
      <mask id="illustration-chat-v" fill="#fff">
        <use xlink:href="#illustration-chat-u"/>
      </mask>
      <use fill="#FFEFE5" xlink:href="#illustration-chat-u"/>
      <g mask="url(#illustration-chat-v)">
        <g transform="scale(-1 1) rotate(-7 41.875 533.67)">
          <path fill="#783B12" d="M41.7169067,14.7528306 C43.1729521,5.05120558 32.4130312,6.60512605 30.4390747,6.88954936 C28.4651181,7.17397267 18.1952177,9.15163344 14.4415161,19.60244 C11.1311319,26.716747 13.7936738,29.1939418 9.64024653,35.4315415 C5.48681926,41.6691413 5.62041766,50.045002 6.19591059,52.8656236 C6.77140352,55.6862452 7.08377669,61.7280828 16.4169625,61.3474904 C25.7501483,60.966898 34.1791695,57.2239482 32.0015747,46.6834947 C31.8220081,41.3380866 27.5014816,32.7598527 29.3951293,26.739647 C29.5195062,26.2405779 40.2608613,24.4544556 41.7169067,14.7528306 Z"/>
          <g transform="translate(0 16)">
            <mask id="illustration-chat-x" fill="#fff">
              <use xlink:href="#illustration-chat-w"/>
            </mask>
            <use fill="#FFE1CE" xlink:href="#illustration-chat-w"/>
            <path fill="#FFD5BA" d="M20.7062796,21.4024089 C24.762509,24.4012397 28.7388356,23.2416022 31.9457448,31.24996 C32.5697862,32.8083285 33.5194189,33.8967814 34.2928403,35.4791423 C39.3520139,45.8298248 51.9794882,42.0517284 58.7520495,35.1585368 C66.2280162,27.5494111 44.9242469,-1.21016311 40.9398001,1.34861654 C38.1563996,3.13609388 34.5484008,9.5213253 31.9646639,11.5792806 C26.862092,15.6434965 21.0698885,18.7867893 15.6225008,22.3905436 L20.7062796,21.4024089 Z" mask="url(#illustration-chat-x)"/>
            <g mask="url(#illustration-chat-x)">
              <g transform="translate(3 28)">
                <mask id="illustration-chat-z" fill="#fff">
                  <use xlink:href="#illustration-chat-y"/>
                </mask>
                <use fill="#FF9248" xlink:href="#illustration-chat-y"/>
                <path fill="#FF8736" d="M22.3904507,-12.1239854 C17.7283751,-5.4838186 21.8612695,7.39086071 22.6346908,8.97322157 C27.6938645,19.3239041 40.3213387,15.5458077 47.0939001,8.6526161 C52.0778779,3.57986563 43.8433947,-3.34566821 22.3904507,-12.1239854 Z" mask="url(#illustration-chat-z)" transform="rotate(-31 34.355 1.622)"/>
              </g>
            </g>
          </g>
          <g transform="translate(17 7)">
            <mask id="illustration-chat-B" fill="#fff">
              <use xlink:href="#illustration-chat-A"/>
            </mask>
            <use fill="#FFE1CE" xlink:href="#illustration-chat-A"/>
            <path fill="#FFD5BA" d="M-3.90076541,34.1577376 C15.8426284,46.8860817 0.614825551,34.5067941 3.76584562,22.3735974 C3.69573064,21.2722466 2.46114705,21.5757543 2.33718213,20.4793255 C2.13274624,18.6711574 3.03826457,15.9185202 2.79206567,14.1157466 C-1.34758971,-16.1965786 -5.05934824,33.4710929 -5.76470588,14.3016677 L-3.90076541,34.1577376 Z" mask="url(#illustration-chat-B)"/>
          </g>
          <path fill="#783B12" d="M58.1285931,9.12589249 C59.5846385,-0.575732539 48.8247176,0.978187928 46.8507611,1.26261124 C44.8768045,1.54703455 34.6069041,3.52469532 30.8532025,13.9755019 C27.5428184,21.0898089 31.0130851,24.2847581 26.8596578,30.5223579 C22.7062305,36.7599576 22.691782,44.1914413 23.2672749,47.0120629 C23.8427679,49.8326845 25.3705036,57.0533381 34.7036894,56.6727457 C44.0368752,56.2921533 51.9975839,52.9393957 49.819989,42.3989421 C49.6404224,37.0535341 43.9131681,27.1329146 45.8068158,21.1127089 C45.9311926,20.6136398 56.6725477,18.8275175 58.1285931,9.12589249 Z" transform="matrix(-1 0 0 1 81.264 0)"/>
          <path fill="#783B12" d="M17.1739761,0.924434007 C28.9978987,1.65656076 32.9803353,6.44848676 29.1212859,15.300212 C28.1722335,10.8982792 25.3793111,9.6216323 20.7425186,11.4702714 L17.1739761,0.924434007 Z" transform="matrix(-1 0 0 1 47.72 0)"/>
        </g>
      </g>
      <g transform="translate(70 4)">
        <g transform="translate(0 12)">
          <mask id="illustration-chat-D" fill="#fff">
            <use xlink:href="#illustration-chat-C"/>
          </mask>
          <use fill="#FFAA71" xlink:href="#illustration-chat-C"/>
          <circle cx="203" cy="2" r="17" fill="#000" fill-opacity=".06" mask="url(#illustration-chat-D)"/>
        </g>
        <g transform="translate(189)">
          <circle cx="14" cy="14" r="14" fill="#FF7F28"/>
          <path fill="#FFF5EF" d="M12.6525289,20.0597511 C13.4375073,20.772935 14.6525095,20.7505407 15.410482,19.9925682 L20.0066761,15.3963741 C21.3735111,14.0295391 21.3735111,11.8134617 20.0066761,10.4466267 L20.0066761,10.4466267 L20.0066761,10.4466267 C18.6398411,9.07979164 16.4237637,9.07979164 15.0569286,10.4466267 L15.0569286,10.4466267 L13.9957401,11.5078152 L12.9248249,10.4368999 C11.5579899,9.07006493 9.34191246,9.07006493 7.97507744,10.4368999 L7.97507744,10.4368999 L7.97507744,10.4368999 C6.60824242,11.803735 6.60824242,14.0198124 7.97507744,15.3866474 L7.97507744,15.3866474 L12.5712715,19.9828415 C12.5978098,20.0093797 12.6249082,20.0350163 12.6525289,20.0597511 Z"/>
        </g>
        <g fill="#FFE1CE" transform="translate(18 23)">
          <rect width="21" height="6" rx="1"/>
          <rect width="31" height="6" y="11" rx="1"/>
          <rect width="31" height="6" x="27" rx="1"/>
          <rect width="21" height="6" x="84" y="11" rx="1"/>
          <rect width="31" height="6" x="64" rx="1"/>
          <rect width="41" height="6" x="37" y="11" rx="1"/>
          <rect width="21" height="6" x="101" rx="1"/>
          <rect width="41" height="6" x="111" y="11" rx="1"/>
          <rect width="41" height="6" y="22" rx="1"/>
          <rect width="21" height="6" x="47" y="22" rx="1"/>
          <rect width="31" height="6" x="101" y="22" rx="1"/>
          <rect width="21" height="6" x="74" y="22" rx="1"/>
        </g>
      </g>
    </g>
  </g>
</svg>
